<svg xmlns="http://www.w3.org/2000/svg" viewBox="0 0 128.8425 83.07012"><defs><style>.cls-1{fill:#fde7e7;}.cls-2{fill:#94211e;}.cls-3{fill:#94221f;}.cls-4{fill:#1e1e1e;stroke:#fde7e7;stroke-miterlimit:10;}</style></defs><g id="Layer_2" data-name="Layer 2"><g id="Layer_4" data-name="Layer 4"><g id="刀に懸けて_katana_ni_kakete_" data-name="刀に懸けて (katana ni kakete)"><path class="cls-1" d="M42.67809,74.243c-.084,3.98144-.31153,7.1958-.875,7.8916a1.61622,1.61622,0,0,1-1.35547.59961.56594.56594,0,0,0-.22852-.50391,4.44933,4.44933,0,0,0-1.34277-.35986l.01172-.21582c.6123.07177,1.61914.18017,1.89551.18017a.55688.55688,0,0,0,.50293-.18017c.46777-.46778.67187-3.68213.75586-7.49561H38.181c-.12012,3.0459-.46778,6.28418-4.73828,8.65918l-.15528-.2041c3.84961-2.48242,4.126-5.63672,4.16114-8.45508H33.86266l-.0957-.33594h8.168l.39551-.456.81543.6958A.746.746,0,0,1,42.67809,74.243Z"/><path class="cls-1" d="M49.94176,76.22149a3.23817,3.23817,0,0,0,.1084-.73144,1.25185,1.25185,0,0,0-.27637-.80372l.06055-.11962c.63574.33545.959.68359.959,1.06738a11.85548,11.85548,0,0,1-.33593,1.31933,9.7015,9.7015,0,0,0-.44336,2.61426,3.85184,3.85184,0,0,0,.168,1.15137c.1084.21582.24024.07227.40821-.44385a10.97686,10.97686,0,0,1,.59961-1.45117l.13183.19189a9.83456,9.83456,0,0,0-.71972,2.80665c-.01172.396-.168.41992-.49219.06005a4.1362,4.1362,0,0,1-.56348-2.375A20.97079,20.97079,0,0,1,49.94176,76.22149ZM53.07262,77.241a5.80384,5.80384,0,0,1,1.043-.92334q.145-.09009,0-.144c-.0957-.01172-.17969-.03613-.26367-.04785a2.31323,2.31323,0,0,1-1.33106-.70752l.14356-.12012a3.60493,3.60493,0,0,0,.99609.34766,5.4646,5.4646,0,0,0,1.54688,0,.992.992,0,0,1,.37207-.01172.62516.62516,0,0,1,.44335.26367.28741.28741,0,0,1,.10743.27588c-.02344.15576-.20313.21582-.51563.17969a3.65535,3.65535,0,0,0-2.39844.97168Zm-.28809,1.64307a1.72878,1.72878,0,0,0,1.72754,1.9668,4.88846,4.88846,0,0,0,1.11524.0122h.32324a.86747.86747,0,0,1,.4082.168c.14356.10791.2041.20361.17969.31152-.02344.252-.63574.3003-1.82324.168-1.667-.20361-2.33887-.82714-2.15821-2.59033Z"/><path class="cls-1" d="M63.73082,77.79278l.875.45557a.398.398,0,0,1-.45508.12011,4.65638,4.65638,0,0,1-1.71582,1.52295l-.14355-.16748A5.401,5.401,0,0,0,63.73082,77.79278Zm-1.12793,3.96973a2.21588,2.21588,0,0,0,1.34375-1.60694l.2041.01172a2.0232,2.0232,0,0,1-1.03222,2.0752c-.28711.168-.65918.21582-.7793,0C62.267,82.06231,62.39977,81.87042,62.60289,81.76251Zm.15625-8.15528.9834.11963c-.02441.15625-.13183.26416-.4082.28809v3.13037h3.37012l.4082-.50391s.49219.35987.81543.65967c-.03613.13184-.13184.17969-.29981.17969H65.55309v2.33887c0,.04785-.19141.19189-.49121.19189h-.09571V77.48077H63.33434v.27588c0,.09619-.251.228-.46778.228h-.10742Zm1.35547-.94775.62305.2998h1.64355l.35938-.38378.81543.624a.94.94,0,0,1-.49121.22754V76.5213a.75127.75127,0,0,1-.49219.21582h-.0957v-.33545H64.67809v.19189c0,.07178-.24024.1919-.47949.1919h-.084Zm2.36231,1.34326v-.69531H64.67809v.69531Zm0,1.01953v-.6958H64.67809v.6958Zm0,1.04346v-.70752H64.67809v.70752Zm-1.25879,4.01758.92285.10791a.35318.35318,0,0,1-.33594.26416v1.4751c0,.15576.04785.19189.57617.19189h1.48731c.707,0,1.25879-.01221,1.43945-.02393.13184-.0122.17969-.03613.22754-.13183a7.17913,7.17913,0,0,0,.2998-1.13965h.14356l.03613,1.17529c.24024.06006.28809.13233.28809.252,0,.312-.32422.40771-2.43457.40771H66.309c-.93555,0-1.09082-.14355-1.09082-.63525Zm.93554-2.2544c1.87012.41944,1.46289,1.71485.85157,1.31934a2.63938,2.63938,0,0,0-.98438-1.21143Zm.49122,1.95459c2.375.6001,2.08691,1.99121,1.40332,1.65528a4.54272,4.54272,0,0,0-1.52344-1.53516Zm2.00292-2.0747.85157.40771a.34374.34374,0,0,1-.40821.168,4.70832,4.70832,0,0,1-1.51074,1.42725l-.14355-.13184A5.73663,5.73663,0,0,0,68.64781,77.7088Zm2.998-5.26514.708.6958c-.084.0957-.27637.084-.50391-.01221-.51562.10791-1.1748.21582-1.88281.312l.50391.22754a.36886.36886,0,0,1-.41992.168,7.88861,7.88861,0,0,1-1.03125,1.13965c.75488.55176.46777,1.24707-.0127.97119a2.88819,2.88819,0,0,0-1.25879-1.31885l.0957-.12011a3.77366,3.77366,0,0,1,.92383.31152,10.86451,10.86451,0,0,0,.65918-1.30713c-.56347.04785-1.13867.09619-1.67871.10791l-.04785-.19189A19.4677,19.4677,0,0,0,71.64586,72.44366Zm.48047,5.1333a2.6693,2.6693,0,0,0-.41992-.67188c-.38379.07227-.83985.13233-1.37988.21583V79.7835c0,.04834-.19141.18018-.49122.18018h-.084V77.20489c-.4082.03613-.85156.1084-1.34375.168a.4351.4351,0,0,1-.26367.228l-.39551-.77979c.29981,0,.75586-.02393,1.29492-.03564a17.60792,17.60792,0,0,0,1.77539-2.68653l.91114.41944c-.05957.13232-.22754.19189-.46778.168A12.73364,12.73364,0,0,1,69.391,76.77325l2.13574-.07178a5.40171,5.40171,0,0,0-.85156-.75586l.10742-.10791C73.13317,76.56964,72.78551,77.98467,72.12633,77.577Zm-1.835,2.49463c2.87793.92334,2.53027,2.63867,1.751,2.19482a5.31877,5.31877,0,0,0-1.8711-2.08691Zm.61133-2.41065c2.15918.85157,1.67871,2.29053,1.01953,1.82276a3.61253,3.61253,0,0,0-1.15137-1.72705Z"/><path class="cls-1" d="M78.75426,76.46173a2.64963,2.64963,0,0,0,.1084-.65967,1.048,1.048,0,0,0-.26367-.71973l.04785-.12012c.63574.28809.959.61182.959.97168a7.36324,7.36324,0,0,1-.33593,1.16309,8.083,8.083,0,0,0-.43165,2.36279,3.1435,3.1435,0,0,0,.15625,1.03174c.10743.16748.24024.03565.40723-.4082a11.685,11.685,0,0,1,.60059-1.31885l.13183.20361a9.19428,9.19428,0,0,0-.73242,2.51856c0,.38379-.15527.396-.49121.06006a3.46365,3.46365,0,0,1-.55176-2.13477A16.9331,16.9331,0,0,1,78.75426,76.46173Zm4.21-1.53516c-.03613-.26416-.22754-.41992-.55176-.45606l.1084-.13183.168-.03613c.49121-.01172.80273.10791.93457.34814a8.93854,8.93854,0,0,1,.19238,2.08643,3.29226,3.29226,0,0,0,1.043-.41944.53808.53808,0,0,1,.3125-.13183.67832.67832,0,0,1,.46778.14355.24939.24939,0,0,1,.12011.1919c0,.2041-.63574.46777-1.90722.77978v.084c0,.228.01172.61181.01172,1.17529a5.11594,5.11594,0,0,1-.67188,2.99853,4.32188,4.32188,0,0,1-2.49414,1.51123l-.12012-.19238A4.26818,4.26818,0,0,0,82.8441,80.827a6.40159,6.40159,0,0,0,.39551-2.65039c0-.35986-.01172-.62354-.02344-.7915a7.332,7.332,0,0,1-.876.0957,1.92738,1.92738,0,0,1-1.46289-.74365l.07226-.16748a3.0054,3.0054,0,0,0,1.36719.43164,3.26682,3.26682,0,0,0,.89941-.13184A6.23576,6.23576,0,0,0,82.96422,74.92657Z"/><path class="cls-1" d="M91.73864,75.98175a.86306.86306,0,0,0,.73144.27587c.13184-.0122,1.25977-.2998,3.37012-.86328,1.55957-.41992,2.43457-.63574,2.63867-.64795a.99911.99911,0,0,1,.624.144.28964.28964,0,0,1,.19141.27588c0,.168-.14356.27587-.41992.2998h-.3711a3.09674,3.09674,0,0,0-.67187,0,1.96763,1.96763,0,0,0-1.47559.87549,5.1201,5.1201,0,0,0-1.24707,3.26221,1.62476,1.62476,0,0,0,1.85938,1.63085,3.014,3.014,0,0,0,.61133-.07177,1.56172,1.56172,0,0,1,.31152-.03614.7663.7663,0,0,1,.47949.15625c.13281.09571.2041.1919.2041.27588,0,.23975-.37207.34766-1.13965.34766q-2.69823,0-2.87793-2.19482c-.12011-1.19922.54-2.55469,1.97852-4.05372a21.75982,21.75982,0,0,0-3.66992,1.22315,1.25682,1.25682,0,0,1-.45508.168c-.39648.03613-.66016-.27588-.792-.91162Z"/></g><path class="cls-2" d="M12.01365,41.56524c1.39-.57,2.78-1.05,4.36-1.68C14.79362,40.50524,13.40366,40.98522,12.01365,41.56524Zm19.97,19.13c-.56-.47-1.3-1.21-2.03-1.94-.16-.14-.31-.29-.46-.44-1.19-1.13-2.39-2.26-3.58-3.38,2.34,2.25,4.14,4.64,6.79,6.47C32.46366,61.16522,32.22361,60.93524,31.98362,60.69525Zm1.38-20.17c-.05-.05-.1-.11-.16-.16a1.5353,1.5353,0,0,0-.19-.17,1.8387,1.8387,0,0,0-.22-.17.29219.29219,0,0,0-.12-.07,4.15286,4.15286,0,0,0,1.02,1.53A1.15508,1.15508,0,0,0,33.36362,40.52526Zm-.04,17.79c-.39-.38-.78-.77-1.17-1.16q.57.58492,1.17,1.17c.16.15.33.3.5.45C33.65366,58.61523,33.48362,58.46527,33.32364,58.31524Z"/><path class="cls-2" d="M35.79362,60.18524l-.32-.18a7.6114,7.6114,0,0,1-.99-.69c-.23-.17-.45-.36-.66-.54-.17-.15-.34-.3-.5-.45q-.6-.585-1.17-1.17c-1.16-1.16-2.28-2.34-3.44-3.49005-1.1-1.06-2.21-2.02-3.45-3.12.76-.77,1.44-1.44,2.11-2.02,2.06-1.82,4.22-3.5,5.81-5.86a2.74568,2.74568,0,0,0,.51-1.18,4.15286,4.15286,0,0,1-1.02-1.53c-.01,0-.01,0-.01-.01a5.87172,5.87172,0,0,0-1.11-.59,4.42187,4.42187,0,0,0-.44-.14,21.36544,21.36544,0,0,0-8.54-.77,28.56736,28.56736,0,0,1-4.13.74c-.15,0-.3-.01-.45-.02-.1-.00995-.21-.02-.32-.04a1.2647,1.2647,0,0,1-.28-.06.80353.80353,0,0,1-.21-.05,1.0872,1.0872,0,0,1-.24-.07h-.01a3.46034,3.46034,0,0,1-.41-.16,8.78445,8.78445,0,0,1-.15,1.1c-1.58.63-2.97,1.11-4.36,1.68-.09.04-.19.08-.28.11-.23.09-.46.17-.68.24a11.606,11.606,0,0,1-1.36.37c-.2.05-.38.09-.56.12-.23.05-.44.07995-.63.11a.43967.43967,0,0,1-.1.02c-.2.03-.39.06-.56.08-.12.02-.23.03-.33.05-.08.01-.16.02-.23.03-.11005.02-.21.03-.29.04-.08.02-.14.04-.19.05a.48367.48367,0,0,0-.07.03,9.681,9.681,0,0,0,3.21,2.57c.71.39,1.44.74,2.15,1.12a6.55331,6.55331,0,0,1,.58.32,6.81609,6.81609,0,0,1,.68.41,4.67949,4.67949,0,0,1,.2-.45,4.1275,4.1275,0,0,1,.22-.42c.08-.13.16-.26.25-.38a2.87155,2.87155,0,0,1,.26-.35,6.30416,6.30416,0,0,1,.94995-.98c.01-.01.03-.02.04-.03.18-.15.36-.29.55-.42.34-.25.69-.47,1.04-.69.3-.19.61-.37.91-.56a1.30879,1.30879,0,0,0,.13.12,1.06783,1.06783,0,0,1,.11.09c.06.04.09.08.09.13.34,1.87,1.06,3.7.77,5.66a.54563.54563,0,0,0-.01.18,4.24156,4.24156,0,0,0,.05.94,6.311,6.311,0,0,1,.06.76c.14,2.35.33,4.7.33,7.1a5.41808,5.41808,0,0,0,4.32,5.14c1.06-3.17-.52-6.39-.04-9.84.61.43,1.16.75,1.65,1.11005a5.71247,5.71247,0,0,1,.46.37v.01a2.12155,2.12155,0,0,1,.22.21c1.19,1.12,2.39,2.25,3.58,3.38-.14-.14-.28-.28-.42-.41a12.34291,12.34291,0,0,0-2.2-2.32c0-.18.51.44.51.18a11.1065,11.1065,0,0,0,2.42,2.53,13.19643,13.19643,0,0,0,2.64,2.45,8.51479,8.51479,0,0,0,3.76,1.77c1.06.1,1.88.03,2.37.07,0,.03.16.05.32.07.16-.05.26-.05.28.04l-.28-.04a4.63415,4.63415,0,0,1-1.3.27c-1.23.12-3.1-.36-5.3-1.98-.1-.07-.2-.16-.31-.25.24.24.48.47.72.71.22.15.44.3.67.44,3.88,2.42,6.48.72,6.48.72Zm-12.25995-12.43a4.38969,4.38969,0,0,1-.34-2.88c.05-1.34.24-2.73-1.01-3.93a8.80291,8.80291,0,0,1,6.48-.96,3.96442,3.96442,0,0,1-.96,2.78,27.82483,27.82483,0,0,1-2.16,3.22A15.46465,15.46465,0,0,1,23.53367,47.75524Z"/><path class="cls-3" d="M54.78367,58.22528a28.61217,28.61217,0,0,0-9.46-.34,19.15589,19.15589,0,0,1-2.64.24c-.24-1.15-.48-2.11-.67-3.07a4.58,4.58,0,0,1-.15-1.05c.1-1.3.43-2.45,2.12-2.41,1.1.05,2.16.15,3.21.29.82.05,1.68.34,2.26-.67-2.02-1.63-4.51-1.63-6.24-2.4a24.79918,24.79918,0,0,0-1.15-3.55,22.62928,22.62928,0,0,0-2.17-2.88,3.42437,3.42437,0,0,1,.87-.48,24.45431,24.45431,0,0,1,8.98-.43c.72.09,1.44.37994,2.06-.48-.29-.29-.58-.68-.91-.77a16.97364,16.97364,0,0,0-3.6-.67c-4.95-.2-9.94-.2-14.98-1.11a5.79889,5.79889,0,0,0,.35,1.5c0,.01,0,.01.01.01a4.15286,4.15286,0,0,0,1.02,1.53,8.23312,8.23312,0,0,0,4,1.76,8.08328,8.08328,0,0,1,.19,1.35c-.19,4.03-.38,8.01-.67,12.05a4.03437,4.03437,0,0,0,2.68,4.51,2.86059,2.86059,0,0,0,2.65.19c3.88-2.06,7.92-3.02,12.24005-1.49a2.5963,2.5963,0,0,0,1.05.19,13.06677,13.06677,0,0,0,1.59-.91A21.61316,21.61316,0,0,0,54.78367,58.22528Z"/><path class="cls-3" d="M55.44993,62.64092c-.23926-.48.24023-1.91992.8164-1.96777,1.82422-.24023,2.40039-1.92041,3.55274-2.92871A31.39187,31.39187,0,0,0,62.363,54.72051a.94483.94483,0,0,0-.14453-1.53613c-1.15137-.8164-2.30371-1.68017-3.50391-2.44824a13.93139,13.93139,0,0,1-4.65625-4.94434,7.21908,7.21908,0,0,1-.09667-6.57666,4.58831,4.58831,0,0,1,.96093-1.20019c2.25586-1.91992,4.55957-3.79248,6.81641-5.7124a2.66772,2.66772,0,0,1,3.12012.04785l2.59179,2.01611a.76313.76313,0,0,1,.33692.33594c.33593,1.0083.67187,2.0166.96,3.02441.0957.33594-.09668.72022-.14453,1.15235-1.53614-.48047-2.73633-.96045-3.98438-1.248a5.28538,5.28538,0,0,0-2.832.2876,4.35668,4.35668,0,0,1-2.0166.52832,1.44693,1.44693,0,0,0-1.53613.91211l-1.77539,3.312a2.47931,2.47931,0,0,0,.76757,3.16846c1.05664.9121,2.208,1.728,3.26465,2.688,1.91992,1.63233,3.83985,3.36036,5.71192,5.04053a4.72,4.72,0,0,1,.8164,1.104c.67188,1.24854.52832,1.39258-.43164,2.54444a5.481,5.481,0,0,1-3.69629,2.16015c-.33691.04786-.67285.38428-1.05664.57618-.47949.28808-.96.52783-1.63183.91211a4.12921,4.12921,0,0,1-3.12012,2.49609A1.3457,1.3457,0,0,1,55.44993,62.64092Z"/><path class="cls-3" d="M74.50559,60.67315a5.46664,5.46664,0,0,0,.38379-1.29639,35.53587,35.53587,0,0,0-.23926-5.5205,56.59974,56.59974,0,0,1-.57617-9.88868,19.13235,19.13235,0,0,0-.57617-6.38476,3.73992,3.73992,0,0,1-.09668-1.05615,3.5745,3.5745,0,0,0-1.00781-2.92823c-.09571-.0957-.04786-.33593-.09571-.67187a6.6991,6.6991,0,0,1,4.94434,1.584l1.15234,1.05616a3.70339,3.70339,0,0,0,3.50391,1.20019,5.82993,5.82993,0,0,1,4.27246.72022,7.3728,7.3728,0,0,1,1.63184,1.34375,2.32209,2.32209,0,0,1,.43261,2.68847c-.57617,1.2959-1.05664,2.64014-2.40039,3.40821a8.93166,8.93166,0,0,0-1.584,1.43994,4.48162,4.48162,0,0,1-2.54492,1.29638,2.51038,2.51038,0,0,0-1.10352.48,2.23144,2.23144,0,0,1-2.832.04786,9.00966,9.00966,0,0,0-.33594,1.72851c0,1.53613.19141,3.12012.19141,4.7041A38.85905,38.85905,0,0,0,78.154,61.681a4.76209,4.76209,0,0,1-.28809,1.68018C76.08957,63.69708,76.13743,62.97686,74.50559,60.67315Zm12.001-21.02588a2.47413,2.47413,0,0,0-2.35254-.96045,24.12333,24.12333,0,0,0-2.63965.76807c-.52832.19238-1.10449.38428-.86426,1.29639.14453.57617-.43164.91211-1.00781,1.05615a7.45731,7.45731,0,0,1-1.00879.19189c-1.00781,2.64014-1.19922,3.88819-.76758,5.28028C80.21848,46.89581,84.778,42.86358,86.50657,39.64727Z"/><path class="cls-3" d="M88.04075,56.68878a19.33732,19.33732,0,0,0-.38477-7.05664c-.43164-2.06446-.52734-4.22461-.91211-6.33692-.23926-1.19971-.71972-2.352-1.00781-3.55224a2.29427,2.29427,0,0,1,.04785-1.39209c.0957-.1919.81641-.28809,1.15234-.144a11.98044,11.98044,0,0,1,4.99219,3.84033,3.19354,3.19354,0,0,1,.24024,1.68018c-.09571,1.92041-.33594,3.84033-.43164,5.80859-.19239,3.79248-.24024,7.58448-.38477,11.42481a9.8039,9.8039,0,0,1-.23926,1.10449C89.24,60.43292,87.60813,58.993,88.04075,56.68878Z"/><path class="cls-3" d="M98.50364,66.43341a6.36028,6.36028,0,0,1-.52735-2.97608c0-3.02441.04786-6.09668,0-9.12109,0-.86377-.14453-1.728-.19238-2.59229l-.43164-7.87256c-.04785-.91211-.14453-1.82422-.24023-2.73632-.09571-1.63184-.19239-3.26416-.33594-4.89649a10.91357,10.91357,0,0,0-.28809-1.43994c-1.53613.48-2.92871.81592-3.84082,2.1123-.52734.72022-.96.86377-1.63183.38379-1.2959-.96-2.64063-1.87207-2.4961-3.936a5.73922,5.73922,0,0,1,.96-.38428c1.34375-.23975,2.68848-.43213,4.03223-.72021a2.37245,2.37245,0,0,0,1.87207-1.05567,1.10653,1.10653,0,0,1,1.584-.38428,6.54039,6.54039,0,0,0,3.16895.33594c1.24805-.04785,2.544-.0957,3.792-.04785a3.27475,3.27475,0,0,0,2.30469-.48,2.0805,2.0805,0,0,1,2.16016.19189,8.25006,8.25006,0,0,1,3.21582,3.07227,1.309,1.309,0,0,1-1.77637,1.0083c-1.3916-.48-2.73633,0-4.03223.1919-1.584.23974-1.87207.19189-2.832-1.39209l.624-.76807c-.14355-.43213-.86425-.28809-2.1123.33594a6.47015,6.47015,0,0,0,.19238,1.29638c.91211,2.352.52735,4.8003.52735,7.2002-.04786,2.44824-.43164,4.84863-.52735,7.29687-.09668,2.064.09571,4.12842,0,6.19239-.09668,1.92041-.38476,3.79248-.624,5.7124a22.0624,22.0624,0,0,1-.67188,3.07226,12.76409,12.76409,0,0,1-.96093,2.68848S99.12766,66.91339,98.50364,66.43341Z"/><path class="cls-3" d="M111.32,61.15313a4.04241,4.04241,0,0,1-2.6875-4.51269c.28809-4.03223.4795-8.01661.67188-12.04883a7.56635,7.56635,0,0,0-.19238-1.34424c-2.832-.624-5.04-1.63232-5.376-4.80029,5.04.91211,10.03223.91211,14.97754,1.104a17.6617,17.6617,0,0,1,3.59961.67188c.33594.09619.624.48046.91211.76806-.624.86426-1.34375.57617-2.06446.48a24.582,24.582,0,0,0-8.97656.43213,3.27974,3.27974,0,0,0-.86426.48,22.54309,22.54309,0,0,1,2.16114,2.88037,23.8672,23.8672,0,0,1,1.15136,3.55225c1.72852.76807,4.22461.76807,6.24121,2.40039-.57617,1.00781-1.44043.72021-2.25683.67188-1.05567-.144-2.11231-.23975-3.21582-.28809-1.68067-.04785-2.0166,1.10449-2.11231,2.40039a4.29659,4.29659,0,0,0,.14356,1.05615c.19238.96.43262,1.91992.67285,3.07227a21.51054,21.51054,0,0,0,2.63965-.24024,28.43316,28.43316,0,0,1,9.457.33643,21.98279,21.98279,0,0,1,2.64062.91211,13.954,13.954,0,0,1-1.585.91162,2.72447,2.72447,0,0,1-1.05566-.19189c-4.32031-1.53614-8.35254-.57618-12.24121,1.48828A2.83027,2.83027,0,0,1,111.32,61.15313Z"/><path class="cls-4" d="M20.39011.93078a2.07088,2.07088,0,0,0-2.16-.19,3.31625,3.31625,0,0,1-2.31.48c-1.24006-.05-2.54,0-3.79.04a6.53254,6.53254,0,0,1-3.17-.33,1.10409,1.10409,0,0,0-1.58.38,2.38408,2.38408,0,0,1-1.87,1.06c-1.35.29-2.69.48005-4.04.72a6.84524,6.84524,0,0,0-.96.38c-.14,2.07,1.2,2.98,2.5,3.94.67.48,1.1.33,1.63-.39.91-1.29,2.31-1.63,3.84-2.11a10.45065,10.45065,0,0,1,.29,1.44c.11,1.33.2,2.67.29,4,.01.3.03.6.05.9.09.91.18994,1.82.24,2.73l.07,1.2.36,6.68006c.05.86.19,1.73.19,2.59.05,3.02,0,6.1,0,9.12a6.31234,6.31234,0,0,0,.53,2.98c.62.48.91.28.91.28a12.746,12.746,0,0,0,.96-2.68,21.09319,21.09319,0,0,0,.67-3.08c.24-1.92.53-3.79.63-5.71.09-2.06-.1-4.13,0-6.19.09-2.34.44995-4.64.51995-6.98.01-.11.01-.21.01-.32,0-1.41.13-2.84.06-4.25a9.55546,9.55546,0,0,0-.59-2.95,5.59051,5.59051,0,0,1-.19-1.29c1.24-.63,1.96-.77,2.11-.34l-.63.77c.96,1.58,1.25,1.63,2.84,1.39,1.29-.19,2.64-.67,4.03-.19a1.3039,1.3039,0,0,0,1.77-1.01A8.1735,8.1735,0,0,0,20.39011.93078Zm-7.77,9.68006a1.24106,1.24106,0,0,0-.15.19c-.09.06-.21.25-.33.36-.12.15-.24.37-.33.38-.1.11-.15.2-.16.17.01.03-.07-.15-.17-.14a2.54651,2.54651,0,0,0-.38-.34,1.45217,1.45217,0,0,0-.37-.33c-.08-.06-.15-.16-.17-.16.01-.03.07-.06.15-.17a4.62073,4.62073,0,0,0,.33-.37c.12-.13.24-.29.33-.38.1-.05.15-.27.15-.17,0-.09.08.16.17.15.1.05.25.28.38.32995.14.13.28.23005.38.33S12.62009,10.55084,12.62009,10.61084Zm-.31-2.75a2.21766,2.21766,0,0,0-.36.41c-.13.16-.25.46-.36.42-.1.1-.16.23-.16.17,0,.01995-.06994,0-.19-.16-.11-.1-.27-.36-.41-.36-.14-.11-.3-.33-.4-.35-.08.04-.15-.07-.18-.12994v-.01c.04-.04.08-.16.15-.21.11-.02.23-.35.36-.41a1.16777,1.16777,0,0,1,.36-.41.34687.34687,0,0,0,.16-.19c0-.09.08.07.19.18a.63092.63092,0,0,1,.41.35c.15.29.29.2.4.34.08.09.14.18.17.2A.6688.6688,0,0,1,12.31009,7.86084Zm-2.21-3.16c.1-.13.24-.29.38-.44s.28-.33.39-.44a.43368.43368,0,0,0,.17-.2c0-.00994.09.18006.2.17005a.93176.93176,0,0,0,.44.39,4.311,4.311,0,0,1,.44.38c.11.05.19.11.2.18,0,.07-.07.13-.18.19a1.85029,1.85029,0,0,1-.38.45,1.78907,1.78907,0,0,0-.39.43c-.09.1-.17.17-.17.2,0,.02-.08.04-.2-.16a1.38077,1.38077,0,0,1-.44-.4c-.17-.31-.31-.16-.44-.38-.11-.01-.19995-.18-.19995-.18A.53116.53116,0,0,1,10.10013,4.7008Zm2.52,8.71c.07-.01.14.1.15.13-.01,0-.06.14-.13.18-.09.04-.2.26-.31.34a.87055.87055,0,0,1-.31.34c-.08.19-.12.21-.14.17-.02,0-.08-.07-.16-.15a1.12352,1.12352,0,0,1-.11-.11,2.11617,2.11617,0,0,0-.23-.19.90585.90585,0,0,0-.35-.29c-.1-.13-.16-.11-.16-.16,0-.02.06-.06.14-.16a.93279.93279,0,0,1,.31-.34,2.42483,2.42483,0,0,0,.3-.35.59326.59326,0,0,0,.14-.16c0,.05.07.2.16.15.11.31.23.25.35.3a.969.969,0,0,1,.29.22A.54991.54991,0,0,1,12.62009,13.41082Z"/><path class="cls-4" d="M20.62082,32.99835c-.24023-.48.23975-1.91993.81592-1.96827,1.82422-.23974,2.40039-1.91992,3.55225-2.92822a31.39709,31.39709,0,0,0,2.54443-3.02392.94455.94455,0,0,0-.144-1.53614c-1.15234-.8164-2.3042-1.68017-3.50439-2.44824a13.93127,13.93127,0,0,1-4.65625-4.94433,7.21759,7.21759,0,0,1-.0962-6.57666,4.60488,4.60488,0,0,1,.96-1.2002C22.34885,6.452,24.65305,4.57989,26.9094,2.66a2.667,2.667,0,0,1,3.11963.04785L32.6218,4.72393a.75819.75819,0,0,1,.33594.33594c.33594,1.0083.67187,2.0166.96,3.02441.0957.33594-.0957.72022-.14355,1.15235-1.53614-.48-2.73633-.96045-3.98438-1.24854a5.29226,5.29226,0,0,0-2.83252.28809,4.35783,4.35783,0,0,1-2.01611.52832,1.4461,1.4461,0,0,0-1.53614.91211l-1.77636,3.312a2.47947,2.47947,0,0,0,.76806,3.16846c1.05616.91211,2.2085,1.728,3.26416,2.688,1.92041,1.63232,3.84082,3.36035,5.71289,5.04052a4.68869,4.68869,0,0,1,.81543,1.104c.67286,1.24853.52832,1.39209-.43164,2.54443a5.47891,5.47891,0,0,1-3.69629,2.16016c-.33593.04785-.67187.38427-1.05615.57617-.48.28808-.96.52783-1.63183.91211a4.12917,4.12917,0,0,1-3.12061,2.49609A1.345,1.345,0,0,1,20.62082,32.99835Z"/><path class="cls-4" d="M42.988,31.89434A3.06847,3.06847,0,0,1,39.532,29.3504a42.87562,42.87562,0,0,1-1.68067-7.249c-.14355-1.96777-.624-3.88818-.67187-5.90429a7.611,7.611,0,0,0-.43164-1.728,5.625,5.625,0,0,1-.24024-1.77637c.19141-1.2959,1.10352-1.82422,2.16016-1.2959,1.00781.43213,2.01562.76807,2.97559,1.24805,1.39257.67188,1.72851,1.584,1.585,3.12012-.28809,3.3125-.57618,6.62451-.72071,9.937a4.43523,4.43523,0,0,0,.81641,3.4082A8.70535,8.70535,0,0,0,44.47629,27.91c2.25586-3.26416,4.56055-6.52832,5.85645-10.3208a21.1581,21.1581,0,0,0,1.20019-6.9126,28.18773,28.18773,0,0,1,.4795-4.94434c.09668-1.05615.24023-2.06445.28808-3.07226,0-.57617.09571-1.0083.67188-1.2002.86426-.28808,1.72851-.52783,2.49609-.81592a2.03031,2.03031,0,0,1,.7207,1.91993c-.28808,2.83252-.28808,3.4082-.48046,6.19287-.14356,2.16015-.33594,4.272-.43165,6.43213-.04785,1.77636-.04785,3.64843.04786,5.4248.0957,1.48779-.04786,2.87988.14355,4.36817.48047,3.64843,1.44043,5.32861,3.02442,6.57666a5.35981,5.35981,0,0,1-4.17579-1.39209c-1.82421-1.728-2.78418-5.90479-3.07226-8.01661-.48047.91211-.48047.91211-.67188,1.34375-.48047,1.05616-.86425,2.2085-1.39257,3.21631a40.46063,40.46063,0,0,1-2.35254,3.93653,3.03423,3.03423,0,0,1-3.07227,1.29589C43.51633,31.94219,43.22825,31.89434,42.988,31.89434Z"/><path class="cls-4" d="M77.2136,33.38262c-2.78418-2.83252-5.76074-5.56836-8.64063-8.30468a22.34825,22.34825,0,0,0-2.1123-1.48828c-.47949,3.45654,1.10449,6.67285.04785,9.84082a5.415,5.415,0,0,1-4.32031-5.13623c0-2.4004-.19141-4.75245-.33594-7.105a12.27147,12.27147,0,0,1-.0957-1.87207c.28808-1.96826-.43262-3.792-.76856-5.66455,0-.0957-.14355-.144-.33594-.33593-1.67968,1.05615-3.5039,1.96826-4.416,4.27246-2.208-1.43994-4.84863-2.11231-6.625-4.41651a28.03746,28.03746,0,0,0,5.28125-1.248c1.3916-.57618,2.78418-1.05616,4.36816-1.68018a9.06569,9.06569,0,0,0,.14356-1.104c2.1123.96,4.08008-.04786,6.04883-.33594a21.35792,21.35792,0,0,1,8.54492.76807,5.45055,5.45055,0,0,1,1.67969.81591c1.15234.81592,1.15234,1.48828.38378,2.64014-1.584,2.35254-3.74414,4.03271-5.80761,5.85645-.67285.57617-1.34473,1.24853-2.11231,2.0166,1.24805,1.104,2.35157,2.064,3.45606,3.12011,1.53613,1.53614,3.02441,3.12012,4.6084,4.65625a12.97691,12.97691,0,0,0,2.208,1.728c3.36036,1.92041,6.76856,3.74463,10.12891,5.6167a6.40623,6.40623,0,0,1,.91211.67188,9.27327,9.27327,0,0,1,.67187.86425,6.80136,6.80136,0,0,1-1.10351.624,3.95115,3.95115,0,0,1-1.29688.09619C83.74192,37.60675,80.09446,36.407,77.2136,33.38262Zm-8.78418-17.0415a29.16968,29.16968,0,0,0,2.16015-3.21631,4.02425,4.02425,0,0,0,.96-2.78418,8.84671,8.84671,0,0,0-6.48047.96c1.248,1.2002,1.05566,2.59229,1.00781,3.93653a4.44482,4.44482,0,0,0,.33594,2.87988A15.5355,15.5355,0,0,0,68.42942,16.34112Z"/><path class="cls-4" d="M84.12473,31.89434a3.06847,3.06847,0,0,1-3.45605-2.54394,42.87562,42.87562,0,0,1-1.68067-7.249c-.14355-1.96777-.624-3.88818-.67187-5.90429a7.611,7.611,0,0,0-.43164-1.728,5.625,5.625,0,0,1-.24024-1.77637c.19141-1.2959,1.10352-1.82422,2.16016-1.2959,1.00781.43213,2.01562.76807,2.97558,1.24805,1.39258.67188,1.72852,1.584,1.585,3.12012-.28809,3.3125-.57618,6.62451-.72071,9.937a4.43523,4.43523,0,0,0,.81641,3.4082A8.70535,8.70535,0,0,0,85.613,27.91c2.25586-3.26416,4.56055-6.52832,5.85645-10.3208a21.1581,21.1581,0,0,0,1.20019-6.9126,28.18678,28.18678,0,0,1,.4795-4.94434c.09667-1.05615.24023-2.06445.28808-3.07226,0-.57617.0957-1.0083.67188-1.2002.86425-.28808,1.72851-.52783,2.49609-.81592a2.03031,2.03031,0,0,1,.7207,1.91993c-.28808,2.83252-.28808,3.4082-.48047,6.19287-.14355,2.16015-.33593,4.272-.43164,6.43213-.04785,1.77636-.04785,3.64843.04786,5.4248.0957,1.48779-.04786,2.87988.14355,4.36817.48047,3.64843,1.44043,5.32861,3.02441,6.57666a5.3598,5.3598,0,0,1-4.17578-1.39209c-1.82422-1.728-2.78418-5.90479-3.07226-8.01661-.48047.91211-.48047.91211-.67188,1.34375-.48047,1.05616-.86426,2.2085-1.39258,3.21631a40.45663,40.45663,0,0,1-2.35254,3.93653,3.03421,3.03421,0,0,1-3.07226,1.29589C84.653,31.94219,84.365,31.89434,84.12473,31.89434Z"/><path class="cls-4" d="M115.324,41.159a25.461,25.461,0,0,1-1.34375-6.57617c-.24023-2.11231-.71973-4.22461-1.10449-6.28857-.09571-.57618-.47949-.72022-1.00781-.72022-1.05567-.04785-2.06446-.144-3.07227-.24023a8.94947,8.94947,0,0,1-4.27246-1.4878c-1.96777-1.29638-2.4961-3.16845-2.01563-5.56884.624-3.12012,2.63965-5.13624,4.94434-6.86426,2.63965-2.01612,5.47168-3.74463,8.1123-5.52051a4.2847,4.2847,0,0,1,2.87989,1.87207c.14453.24023.33691.57617.24023.81592a.765.765,0,0,1-.67187.38428c-2.44825-.28809-4.22461.96-5.95215,2.35205-1.63281,1.248-3.2168,2.49609-4.75293,3.84033a7.31733,7.31733,0,0,0-2.06348,4.32031,3.357,3.357,0,0,0,1.43945,3.36035c1.584,1.248,3.45606,1.39209,5.377,1.44043a.76383.76383,0,0,0,.81543-.91211,31.735,31.735,0,0,0-.71973-3.60058c-.0957-.38379-.71973-.57618-1.10449-.91211-.28809-.23975-.76758-.624-.71973-.81592a1.62628,1.62628,0,0,1,.81641-.96,12.69347,12.69347,0,0,1,4.65625-.38428c1.05566.144,2.49609,2.11231,2.40039,3.21631-.09668.86426-.24024,1.728-.38477,2.59228-.14355.91211-.23925,1.728.67286,2.35206.1914.144.14355.52832.28808.9121-1.34473.1919-1.48828,1.15235-1.48828,2.16016-.04785,1.68018-.04785,3.36035-.04785,5.04053-.04883,1.87207,0,3.69629-.09668,5.52051a7.35655,7.35655,0,0,1-.43164,1.92041A1.64926,1.64926,0,0,1,115.324,41.159Z"/><path class="cls-4" d="M123.62766,27.0462a19.33755,19.33755,0,0,0-.38476-7.05664c-.43165-2.06446-.52735-4.22461-.91211-6.33692-.23926-1.1997-.71973-2.35205-1.00782-3.55224a2.29435,2.29435,0,0,1,.04785-1.39209c.09571-.1919.81641-.28809,1.15235-.144a11.9766,11.9766,0,0,1,4.99219,3.84034,3.1936,3.1936,0,0,1,.24023,1.68017c-.0957,1.92041-.33594,3.84033-.43164,5.8086-.19238,3.79248-.24023,7.58447-.38477,11.4248a9.80525,9.80525,0,0,1-.23925,1.10449C124.82688,30.79034,123.195,29.3504,123.62766,27.0462Z"/></g></g></svg>