<svg xmlns="http://www.w3.org/2000/svg" viewBox="0 0 37.68008 38.37214"><defs><style>.cls-1{fill:#94211e;}.cls-2{fill:#1e1e1e;stroke:#fde7e7;stroke-miterlimit:10;stroke-width:2px;}</style></defs><g id="Layer_2" data-name="Layer 2"><g id="Layer_2-2" data-name="Layer 2"><path class="cls-1" d="M33.30008,29.18078a12.3263,12.3263,0,0,1-2.15-1.69c-1.58-1.53-3.07-3.12-4.61-4.65-1.1-1.06-2.21-2.02-3.45-3.12.76-.77,1.44-1.44,2.11-2.02,2.06-1.82,4.22-3.5,5.81-5.86.76-1.15.76-1.82-.39-2.64a5.44343,5.44343,0,0,0-1.68-.81,21.36557,21.36557,0,0,0-8.54-.77c-1.84.27-3.69,1.17-5.64.5a3.45853,3.45853,0,0,1-.41-.16,8.783,8.783,0,0,1-.15,1.1c-1.58.62-2.97,1.1-4.36,1.68-.09.04-.19.08-.28.11a30.15842,30.15842,0,0,1-5,1.14c1.44,1.88,3.46,2.67,5.36005,3.69a13.27294,13.27294,0,0,1,1.25994.73,6.17627,6.17627,0,0,1,.93006-1.6,2.11617,2.11617,0,0,0-.23-.19.90585.90585,0,0,0-.35-.29c-.1-.13-.16-.11-.16-.16,0-.02.06-.06.14-.16a.93279.93279,0,0,1,.31-.34,2.42483,2.42483,0,0,0,.3-.35.59326.59326,0,0,0,.14-.16c0,.05.07.2.16.15.11.31.23.25.35.3a.969.969,0,0,1,.29.22,14.02267,14.02267,0,0,1,1.63-1.14c.3-.19.61-.37.91-.56.19.19.33.24.33.34.34,1.87,1.06,3.7.77,5.66a11.85369,11.85369,0,0,0,.1,1.88c.14,2.35.33,4.7.33,7.1a5.418,5.418,0,0,0,4.32,5.14c1.06-3.17-.52-6.39-.04-9.84a24.216,24.216,0,0,1,2.11,1.48c2.64,2.51,4.57,5.2,7.68,7.13,3.88,2.42,6.48.72,6.48.72Zm-20.33-17.87994c-.09.06-.21.25-.33.36-.12.15-.24.37-.33.38-.1.11-.15.2-.16.17.01.03-.07-.15-.17-.14a2.54651,2.54651,0,0,0-.38-.34,1.45217,1.45217,0,0,0-.37-.33c-.08-.06-.15-.16-.17-.16.01-.03.07-.06.15-.17a4.62073,4.62073,0,0,0,.33-.37c.12-.13.24-.29.33-.38.1-.05.15-.27.15-.17,0-.09.08.16.17.15.1.05.25.28.38.32995.14.13.28.23005.38.33s.17.09.17.15A1.24106,1.24106,0,0,0,12.97012,11.30084Zm8.39,5.62994a4.38953,4.38953,0,0,1-.34-2.87994c.05-1.34.24-2.73-1.01-3.93006a8.80264,8.80264,0,0,1,6.48-.96,3.96438,3.96438,0,0,1-.96,2.78,27.8264,27.8264,0,0,1-2.16,3.22A15.46461,15.46461,0,0,1,21.36014,16.93078Zm14.06,15.17005c-1.23005.12-3.1-.36005-5.30005-1.98005-.77-.56994-2.08-1.95-3.22-3.04a12.34313,12.34313,0,0,0-2.2-2.32c0-.18.51.44.51.18a11.10687,11.10687,0,0,0,2.42,2.53,13.20037,13.20037,0,0,0,2.64,2.45,8.51548,8.51548,0,0,0,3.76,1.77c1.06.1,1.88.03,2.37.07,0,.03.16.05.32.07.16-.05.26-.05.28.04l-.28-.04A4.63375,4.63375,0,0,1,35.42014,32.10083Z"/><path class="cls-2" d="M20.89011,1.43078a2.07088,2.07088,0,0,0-2.16-.19,3.31625,3.31625,0,0,1-2.31.48c-1.24006-.05-2.54,0-3.79.04a6.53254,6.53254,0,0,1-3.17-.33,1.10409,1.10409,0,0,0-1.58.38,2.38408,2.38408,0,0,1-1.87,1.06c-1.35.29-2.69.48005-4.04.72a6.84524,6.84524,0,0,0-.96.38c-.14,2.07,1.2,2.98,2.5,3.94.67.48,1.1.33,1.63-.39.91-1.29,2.31-1.63,3.84-2.11a10.45065,10.45065,0,0,1,.29,1.44c.11,1.33.2,2.67.29,4,.01.3.03.6.05.9.09.91.18994,1.82.24,2.73l.07,1.2.36,6.68006c.05.86.19,1.73.19,2.59.05,3.02,0,6.1,0,9.12a6.31234,6.31234,0,0,0,.53,2.98c.62.48.91.28.91.28a12.746,12.746,0,0,0,.96-2.68,21.09319,21.09319,0,0,0,.67-3.08c.24-1.92.53-3.79.63-5.71.09-2.06-.1-4.13,0-6.19.09-2.34.44995-4.64.51995-6.98.01-.11.01-.21.01-.32,0-1.41.13-2.84.06-4.25a9.55546,9.55546,0,0,0-.59-2.95,5.59051,5.59051,0,0,1-.19-1.29c1.24-.63,1.96-.77,2.11-.34l-.63.77c.96,1.58,1.25,1.63,2.84,1.39,1.29-.19,2.64-.67,4.03-.19a1.3039,1.3039,0,0,0,1.77-1.01A8.1735,8.1735,0,0,0,20.89011,1.43078Zm-7.77,9.68006a1.24106,1.24106,0,0,0-.15.19c-.09.06-.21.25-.33.36-.12.15-.24.37-.33.38-.1.11-.15.2-.16.17.01.03-.07-.15-.17-.14a2.54651,2.54651,0,0,0-.38-.34,1.45217,1.45217,0,0,0-.37-.33c-.08-.06-.15-.16-.17-.16.01-.03.07-.06.15-.17a4.62073,4.62073,0,0,0,.33-.37c.12-.13.24-.29.33-.38.1-.05.15-.27.15-.17,0-.09.08.16.17.15.1.05.25.28.38.32995.14.13.28.23005.38.33S13.12009,11.05084,13.12009,11.11084Zm-.31-2.75a2.21766,2.21766,0,0,0-.36.41c-.13.16-.25.46-.36.42-.1.1-.16.23-.16.17,0,.01995-.06994,0-.19-.16-.11-.1-.27-.36-.41-.36-.14-.11-.3-.33-.4-.35-.08.04-.15-.07-.18-.12994v-.01c.04-.04.08-.16.15-.21.11-.02.23-.35.36-.41a1.16777,1.16777,0,0,1,.36-.41.34687.34687,0,0,0,.16-.19c0-.09.08.07.19.18a.63092.63092,0,0,1,.41.35c.15.29.29.2.4.34.08.09.14.18.17.2A.6688.6688,0,0,1,12.81009,8.36084Zm-2.21-3.16c.1-.13.24-.29.38-.44s.28-.33.39-.44a.43368.43368,0,0,0,.17-.2c0-.00994.09.18006.2.17a.93176.93176,0,0,0,.44.39,4.311,4.311,0,0,1,.44.38c.11.05.19.11.2.18,0,.07-.07.13-.18.19a1.85029,1.85029,0,0,1-.38.45,1.78907,1.78907,0,0,0-.39.43c-.09.1-.17.17-.17.2,0,.02-.08.04-.2-.16a1.38077,1.38077,0,0,1-.44-.4c-.17-.31-.31-.16-.44-.38-.11-.01-.19995-.18-.19995-.18A.53116.53116,0,0,1,10.60013,5.2008Zm2.52,8.71c.07-.01.14.1.15.13-.01,0-.06.14-.13.18-.09.04-.2.26-.31.34a.87055.87055,0,0,1-.31.34c-.08.19-.12.21-.14.17-.02,0-.08-.07-.16-.15a1.12352,1.12352,0,0,1-.11-.11,2.11617,2.11617,0,0,0-.23-.19.90585.90585,0,0,0-.35-.29c-.1-.13-.16-.11-.16-.16,0-.02.06-.06.14-.16a.93279.93279,0,0,1,.31-.34,2.42483,2.42483,0,0,0,.3-.35.59326.59326,0,0,0,.14-.16c0,.05.07.2.16.15.11.31.23.25.35.3a.969.969,0,0,1,.29.22A.54991.54991,0,0,1,13.12009,13.91082Z"/></g></g></svg>