<svg width="36" height="24" viewBox="0 0 36 24" fill="none" xmlns="http://www.w3.org/2000/svg">
<rect x="0.639526" y="0.5" width="34.6105" height="23" rx="3.5" fill="white" stroke="#D9D9D9"/>
<path fill-rule="evenodd" clip-rule="evenodd" d="M8.63131 8.93296C9.10955 8.97261 9.58779 8.69506 9.88669 8.34316C10.1806 7.98135 10.3749 7.49563 10.3251 7C9.90163 7.01983 9.37856 7.27755 9.07966 7.63936C8.80567 7.95161 8.57153 8.45715 8.63131 8.93296ZM14.3204 15.3167V7.58981H17.2347C18.7391 7.58981 19.7902 8.62072 19.7902 10.1274C19.7902 11.6342 18.7192 12.675 17.1948 12.675H15.5259V15.3167H14.3204ZM10.3201 9.02714C9.89874 9.00301 9.51431 9.1532 9.20379 9.27451C9.00396 9.35257 8.83474 9.41868 8.706 9.41868C8.56154 9.41868 8.38533 9.34904 8.1875 9.27085L8.1875 9.27085C7.92827 9.16839 7.6319 9.05125 7.3211 9.05687C6.60873 9.06679 5.94616 9.46825 5.5825 10.1076C4.83525 11.3863 5.38822 13.2796 6.11056 14.3205C6.46426 14.8359 6.8877 15.4009 7.44564 15.3811C7.69111 15.3719 7.86768 15.2974 8.05041 15.2202C8.26079 15.1314 8.47934 15.0391 8.82058 15.0391C9.15 15.0391 9.35899 15.129 9.5596 15.2152C9.75036 15.2973 9.93354 15.376 10.2055 15.3712C10.7834 15.3613 11.147 14.8557 11.5007 14.3403C11.8824 13.7871 12.0501 13.2472 12.0756 13.1652L12.0786 13.1557C12.078 13.1551 12.0733 13.153 12.0649 13.1492C11.9373 13.0911 10.9621 12.6469 10.9527 11.4557C10.9433 10.4559 11.7263 9.94937 11.8495 9.86962C11.857 9.86477 11.8621 9.8615 11.8644 9.85979C11.3662 9.12626 10.5891 9.04696 10.3201 9.02714ZM21.9922 15.3761C22.7494 15.3761 23.4518 14.9945 23.7706 14.3898H23.7955V15.3166H24.9114V11.4706C24.9114 10.3554 24.0147 9.63672 22.6348 9.63672C21.3545 9.63672 20.408 10.3653 20.3731 11.3665H21.4591C21.5488 10.8907 21.9922 10.5784 22.5999 10.5784C23.3372 10.5784 23.7507 10.9204 23.7507 11.5499V11.9761L22.2462 12.0653C20.8464 12.1496 20.0892 12.7195 20.0892 13.7108C20.0892 14.712 20.8713 15.3761 21.9922 15.3761ZM22.3159 14.4592C21.6733 14.4592 21.2648 14.1519 21.2648 13.6811C21.2648 13.1954 21.6583 12.9129 22.4106 12.8683L23.7506 12.784V13.2202C23.7506 13.9438 23.1329 14.4592 22.3159 14.4592ZM28.6128 15.619C28.1296 16.9721 27.5766 17.4181 26.4009 17.4181C26.3112 17.4181 26.0124 17.4082 25.9426 17.3884V16.4616C26.0173 16.4715 26.2017 16.4814 26.2963 16.4814C26.8293 16.4814 27.1282 16.2584 27.3126 15.6785L27.4222 15.3365L25.3797 9.71108H26.64L28.0598 14.2758H28.0847L29.5045 9.71108H30.73L28.6128 15.619ZM15.5258 8.60087H16.9157C17.9619 8.60087 18.5597 9.15598 18.5597 10.1324C18.5597 11.1088 17.9619 11.6688 16.9107 11.6688H15.5258V8.60087Z" fill="black"/>
</svg>
