<svg width="21" height="20" viewBox="0 0 21 20" fill="none" xmlns="http://www.w3.org/2000/svg">
<path d="M20.1747 10C20.1747 15.2386 15.8515 19.5001 10.5003 19.5001C5.14902 19.5001 0.825806 15.2386 0.825806 10C0.825806 4.76143 5.14902 0.5 10.5003 0.5C15.8515 0.5 20.1747 4.76143 20.1747 10Z" stroke="#1E1E1E"/>
<g clip-path="url(#clip0_85_528)">
<path d="M10.5003 2.66663C6.37956 2.66663 3.039 5.94992 3.039 9.99999C3.039 13.439 5.4481 16.3249 8.69792 17.1175V12.2411H7.15941V9.99999H8.69792V9.03433C8.69792 6.53835 9.84726 5.38144 12.3405 5.38144C12.8133 5.38144 13.6289 5.47266 13.9626 5.5636V7.59494C13.7865 7.57675 13.4806 7.56766 13.1007 7.56766C11.8773 7.56766 11.4046 8.02321 11.4046 9.2074V9.99999H13.8417L13.423 12.2411H11.4046V17.2797C15.0991 16.8411 17.9618 13.7494 17.9618 9.99999C17.9615 5.94992 14.621 2.66663 10.5003 2.66663Z" fill="#1E1E1E"/>
</g>
<defs>
<clipPath id="clip0_85_528">
<rect width="14.9225" height="14.6667" fill="white" transform="translate(3.039 2.66663)"/>
</clipPath>
</defs>
</svg>
