<svg width="36" height="24" viewBox="0 0 36 24" fill="none" xmlns="http://www.w3.org/2000/svg">
<rect x="0.889526" y="0.5" width="34.6105" height="23" rx="3.5" fill="white" stroke="#D9D9D9"/>
<path fill-rule="evenodd" clip-rule="evenodd" d="M18.4491 17.1569C17.2367 18.1852 15.6641 18.806 13.9457 18.806C10.1113 18.806 7.00287 15.7154 7.00287 11.903C7.00287 8.09057 10.1113 5 13.9457 5C15.6641 5 17.2367 5.62075 18.4491 6.64903C19.6614 5.62075 21.2341 5 22.9525 5C26.7869 5 29.8953 8.09057 29.8953 11.903C29.8953 15.7154 26.7869 18.806 22.9525 18.806C21.2341 18.806 19.6614 18.1852 18.4491 17.1569Z" fill="#ED0006"/>
<path fill-rule="evenodd" clip-rule="evenodd" d="M18.4491 17.1569C19.9419 15.8908 20.8885 14.0068 20.8885 11.903C20.8885 9.79917 19.9419 7.91517 18.4491 6.64903C19.6615 5.62075 21.2341 5 22.9525 5C26.7869 5 29.8953 8.09057 29.8953 11.903C29.8953 15.7154 26.7869 18.806 22.9525 18.806C21.2341 18.806 19.6615 18.1852 18.4491 17.1569Z" fill="#F9A000"/>
<path fill-rule="evenodd" clip-rule="evenodd" d="M18.4491 17.1569C16.9563 15.8908 16.0098 14.0068 16.0098 11.903C16.0098 9.79917 16.9563 7.91518 18.4491 6.64905C19.9419 7.91518 20.8884 9.79917 20.8884 11.903C20.8884 14.0068 19.9419 15.8908 18.4491 17.1569Z" fill="#FF5E00"/>
</svg>
