<svg width="80" height="80" viewBox="0 0 80 80" fill="none" xmlns="http://www.w3.org/2000/svg">
<path d="M46.8468 8.46768L47.8418 8.36818V8.36817L46.8468 8.46768ZM47.6843 16.8429L48.6793 16.7434L47.6843 16.8429ZM48.4821 19.5222L48.8648 18.5983L48.4821 19.5222ZM50.9408 18.1918L50.3076 17.4179H50.3076L50.9408 18.1918ZM57.4552 12.8619L58.0884 13.6359L58.0884 13.6359L57.4552 12.8619ZM58.8387 12.064L58.8885 11.0653L58.8885 11.0653L58.8387 12.064ZM60.1359 12.9956L59.4288 13.7027V13.7027L60.1359 12.9956ZM67.0043 19.864L67.7114 19.1569L67.0043 19.864ZM67.9359 21.1612L68.9346 21.1114L68.9346 21.1114L67.9359 21.1612ZM67.138 22.5447L67.9119 23.1779L67.138 22.5447ZM61.808 29.0592L62.5428 29.7374L62.563 29.7155L62.5819 29.6924L61.808 29.0592ZM61.808 29.0592L61.0732 28.3809L61.0529 28.4028L61.034 28.4259L61.808 29.0592ZM60.4776 31.5179L61.4015 31.1352V31.1352L60.4776 31.5179ZM63.1569 32.3157L63.0574 33.3107L63.1569 32.3157ZM71.5323 33.1533L71.6318 32.1582L71.5323 33.1533ZM73.0748 33.5673L73.8162 32.8963L73.8162 32.8963L73.0748 33.5673ZM73.0748 46.4327L73.8162 47.1037L73.8162 47.1037L73.0748 46.4327ZM71.5323 46.8468L71.6318 47.8418L71.5323 46.8468ZM63.1581 47.6842L63.2576 48.6792L63.1581 47.6842ZM60.4789 48.482L59.555 48.0994L59.555 48.0994L60.4789 48.482ZM61.8092 50.9408L62.5832 50.3075V50.3075L61.8092 50.9408ZM67.1381 57.4539L67.9121 56.8206L67.1381 57.4539ZM67.936 58.8373L68.9348 58.8872V58.8871L67.936 58.8373ZM58.8388 67.9345L58.8886 68.9333L58.8887 68.9333L58.8388 67.9345ZM57.4554 67.1367L56.8221 67.9106H56.8221L57.4554 67.1367ZM50.941 61.8067L50.3078 62.5807L50.941 61.8067ZM48.4823 60.4763L48.0996 59.5525L48.0996 59.5525L48.4823 60.4763ZM47.6844 63.1556L48.6795 63.2551L47.6844 63.1556ZM46.8468 71.5324L47.8418 71.6319L46.8468 71.5324ZM46.4327 73.0748L47.1037 73.8163L47.1037 73.8163L46.4327 73.0748ZM33.5673 73.0748L32.8963 73.8163L32.8963 73.8163L33.5673 73.0748ZM33.1532 71.5324L32.1582 71.6319L33.1532 71.5324ZM32.3157 63.1569L33.3107 63.0574V63.0574L32.3157 63.1569ZM31.5178 60.4776L31.1352 61.4015H31.1352L31.5178 60.4776ZM29.0592 61.808L28.4259 61.034L28.3873 61.0656L28.3521 61.1009L29.0592 61.808ZM29.0591 61.808L29.6924 62.582L29.731 62.5504L29.7663 62.5151L29.0591 61.808ZM22.5445 67.1382L23.1778 67.9121L22.5445 67.1382ZM21.1611 67.936L21.1112 68.9348L21.1112 68.9348L21.1611 67.936ZM19.8638 67.0045L20.5709 66.2974L19.8638 67.0045ZM12.9954 60.1361L12.2883 60.8432L12.9954 60.1361ZM12.0639 58.8388L13.0626 58.789L13.0626 58.789L12.0639 58.8388ZM12.8617 57.4554L12.0878 56.8221L12.0878 56.8221L12.8617 57.4554ZM18.1918 50.9409L18.9658 51.5741L18.1918 50.9409ZM19.5222 48.4822L20.4461 48.0995L19.5222 48.4822ZM16.8429 47.6843L16.7434 48.6793L16.8429 47.6843ZM8.46767 46.8468L8.36816 47.8418H8.36816L8.46767 46.8468ZM6.92522 33.5673L7.66667 34.2383H7.66667L6.92522 33.5673ZM8.46765 33.1533V32.1533H8.41777L8.36814 32.1582L8.46765 33.1533ZM8.46766 33.1533V34.1533H8.51754L8.56717 34.1483L8.46766 33.1533ZM16.8441 32.3156L16.7446 31.3206L16.8441 32.3156ZM19.5234 31.5178L18.5996 31.1351V31.1351L19.5234 31.5178ZM18.1931 29.0591L17.4191 29.6923L18.1931 29.0591ZM12.8619 22.5432L13.6359 21.91L12.8619 22.5432ZM12.064 21.1597L11.0653 21.1099L11.0653 21.1099L12.064 21.1597ZM12.9956 19.8625L13.7027 20.5696L12.9956 19.8625ZM19.864 12.9941L20.5711 13.7012L19.864 12.9941ZM21.1612 12.0625L21.1114 11.0638L21.1114 11.0638L21.1612 12.0625ZM22.5447 12.8604L21.9114 13.6344L22.5447 12.8604ZM29.0593 18.1905L29.6925 17.4166L29.0593 18.1905ZM31.518 19.5209L31.9007 20.4448H31.9007L31.518 19.5209ZM32.3158 16.8416L33.3109 16.9411V16.9411L32.3158 16.8416ZM33.1532 8.46768L34.1483 8.56718L34.1532 8.51756V8.46768H33.1532ZM33.1532 8.46766L32.1582 8.36816L32.1532 8.41778V8.46766H33.1532ZM33.5673 6.92523L34.2383 7.66669V7.66669L33.5673 6.92523ZM47.8418 8.36817C47.8017 7.96681 47.764 7.57018 47.6889 7.24656C47.6074 6.89513 47.4561 6.50274 47.1037 6.18378L45.7617 7.66669C45.6949 7.60627 45.7079 7.55714 45.7406 7.69832C45.7798 7.8673 45.8063 8.11262 45.8517 8.56718L47.8418 8.36817ZM48.6793 16.7434L47.8418 8.36818L45.8517 8.56718L46.6893 16.9424L48.6793 16.7434ZM48.8648 18.5983C49.0387 18.6704 48.9942 18.812 48.9069 18.4653C48.8194 18.1172 48.7644 17.594 48.6793 16.7434L46.6893 16.9424C46.7676 17.7254 46.8351 18.4273 46.9674 18.9533C47.1001 19.4806 47.3727 20.1451 48.0995 20.4461L48.8648 18.5983ZM50.3076 17.4179C49.646 17.9592 49.2372 18.2903 48.9291 18.4745C48.6223 18.658 48.6909 18.5263 48.8648 18.5983L48.0995 20.4461C48.8262 20.7471 49.4888 20.4701 49.9555 20.191C50.421 19.9127 50.9651 19.4641 51.5741 18.9658L50.3076 17.4179ZM56.822 12.088L50.3076 17.4179L51.5741 18.9658L58.0884 13.6359L56.822 12.088ZM58.8885 11.0653C58.4137 11.0416 58.0293 11.2121 57.7232 11.403C57.4413 11.5787 57.1342 11.8325 56.822 12.088L58.0884 13.6359C58.442 13.3466 58.6342 13.1918 58.7814 13.1001C58.9044 13.0234 58.8788 13.0673 58.7889 13.0628L58.8885 11.0653ZM60.843 12.2885C60.5578 12.0033 60.2774 11.7202 60.0144 11.5172C59.7288 11.2968 59.3632 11.089 58.8885 11.0653L58.7889 13.0628C58.6989 13.0583 58.6779 13.0121 58.7926 13.1006C58.9299 13.2066 59.1058 13.3797 59.4288 13.7027L60.843 12.2885ZM67.7114 19.1569L60.843 12.2885L59.4288 13.7027L66.2972 20.5711L67.7114 19.1569ZM68.9346 21.1114C68.9109 20.6367 68.7031 20.2711 68.4827 19.9855C68.2797 19.7225 67.9966 19.4421 67.7114 19.1569L66.2972 20.5711C66.6202 20.8941 66.7933 21.07 66.8993 21.2073C66.9878 21.3221 66.9416 21.301 66.9371 21.211L68.9346 21.1114ZM67.9119 23.1779C68.1674 22.8657 68.4212 22.5586 68.5969 22.2767C68.7878 21.9706 68.9583 21.5862 68.9346 21.1114L66.9371 21.211C66.9326 21.1211 66.9765 21.0955 66.8998 21.2185C66.8081 21.3657 66.6533 21.5579 66.364 21.9115L67.9119 23.1779ZM62.5819 29.6924L67.9119 23.1779L66.364 21.9115L61.034 28.4259L62.5819 29.6924ZM62.5428 29.7375L62.5428 29.7374L61.0732 28.3809L61.0732 28.3809L62.5428 29.7375ZM61.4015 31.1352C61.4735 31.3091 61.3419 31.3777 61.5253 31.0709C61.7095 30.7629 62.0406 30.354 62.5819 29.6924L61.034 28.4259C60.5357 29.0349 60.0871 29.579 59.8088 30.0445C59.5297 30.5112 59.2527 31.1739 59.5537 31.9006L61.4015 31.1352ZM63.2564 31.3207C62.4058 31.2356 61.8826 31.1806 61.5345 31.0931C61.1878 31.0058 61.3295 30.9613 61.4015 31.1352L59.5537 31.9006C59.8547 32.6273 60.5192 32.9 61.0466 33.0326C61.5725 33.1649 62.2744 33.2325 63.0574 33.3107L63.2564 31.3207ZM71.6318 32.1582L63.2564 31.3207L63.0574 33.3107L71.4328 34.1483L71.6318 32.1582ZM73.8162 32.8963C73.4973 32.5439 73.1049 32.3926 72.7535 32.3111C72.4298 32.2361 72.0332 32.1984 71.6318 32.1582L71.4328 34.1483C71.8874 34.1938 72.1327 34.2202 72.3017 34.2594C72.4429 34.2921 72.3938 34.3051 72.3333 34.2383L73.8162 32.8963ZM74.3333 35.1433C74.3333 34.74 74.3353 34.3416 74.2928 34.0121C74.2467 33.6543 74.1352 33.2488 73.8162 32.8963L72.3333 34.2383C72.2729 34.1716 72.2907 34.124 72.3092 34.2677C72.3314 34.4398 72.3333 34.6865 72.3333 35.1433H74.3333ZM74.3333 44.8567V35.1433H72.3333V44.8567H74.3333ZM73.8162 47.1037C74.1352 46.7513 74.2467 46.3458 74.2928 45.988C74.3353 45.6585 74.3333 45.2601 74.3333 44.8567H72.3333C72.3333 45.3135 72.3314 45.5603 72.3092 45.7323C72.2907 45.8761 72.2729 45.8285 72.3333 45.7617L73.8162 47.1037ZM71.6318 47.8418C72.0332 47.8017 72.4298 47.764 72.7535 47.6889C73.1049 47.6075 73.4973 47.4562 73.8162 47.1037L72.3333 45.7617C72.3938 45.6949 72.4429 45.7079 72.3017 45.7406C72.1327 45.7798 71.8874 45.8063 71.4328 45.8517L71.6318 47.8418ZM63.2576 48.6792L71.6318 47.8418L71.4328 45.8517L63.0586 46.6892L63.2576 48.6792ZM61.4027 48.8647C61.3307 49.0386 61.1891 48.9941 61.5358 48.9069C61.8838 48.8193 62.4071 48.7643 63.2576 48.6792L63.0586 46.6892C62.2757 46.7675 61.5737 46.835 61.0478 46.9673C60.5205 47.1 59.856 47.3727 59.555 48.0994L61.4027 48.8647ZM62.5832 50.3075C62.0419 49.6459 61.7108 49.2371 61.5266 48.929C61.3431 48.6222 61.4748 48.6908 61.4027 48.8647L59.555 48.0994C59.254 48.8261 59.531 49.4888 59.8101 49.9555C60.0884 50.4209 60.537 50.965 61.0353 51.574L62.5832 50.3075ZM67.9121 56.8206L62.5832 50.3075L61.0353 51.574L66.3642 58.0871L67.9121 56.8206ZM68.9348 58.8871C68.9585 58.4124 68.788 58.028 68.5971 57.7218C68.4213 57.4399 68.1675 57.1328 67.9121 56.8206L66.3642 58.0871C66.6535 58.4407 66.8082 58.6329 66.9 58.7801C66.9767 58.903 66.9328 58.8774 66.9373 58.7875L68.9348 58.8871ZM67.7116 60.8417C67.9968 60.5564 68.2799 60.2761 68.4828 60.0131C68.7032 59.7275 68.9111 59.3619 68.9348 58.8872L66.9373 58.7875C66.9417 58.6976 66.988 58.6765 66.8994 58.7912C66.7935 58.9286 66.6204 59.1044 66.2973 59.4274L67.7116 60.8417ZM60.8432 67.7101L67.7116 60.8417L66.2973 59.4274L59.4289 66.2958L60.8432 67.7101ZM58.8887 68.9333C59.3634 68.9096 59.729 68.7017 60.0146 68.4813C60.2776 68.2784 60.5579 67.9953 60.8432 67.7101L59.4289 66.2958C59.1059 66.6189 58.9301 66.792 58.7927 66.8979C58.678 66.9865 58.6991 66.9403 58.789 66.9358L58.8887 68.9333ZM56.8221 67.9106C57.1343 68.166 57.4414 68.4198 57.7233 68.5956C58.0294 68.7865 58.4139 68.957 58.8886 68.9333L58.789 66.9358C58.8789 66.9313 58.9045 66.9752 58.7816 66.8985C58.6344 66.8067 58.4422 66.652 58.0886 66.3627L56.8221 67.9106ZM50.3078 62.5807L56.8221 67.9106L58.0886 66.3627L51.5742 61.0328L50.3078 62.5807ZM48.865 61.4002C48.6911 61.4722 48.6224 61.3406 48.9292 61.5241C49.2373 61.7083 49.6462 62.0394 50.3078 62.5807L51.5742 61.0328C50.9652 60.5345 50.4211 60.0859 49.9557 59.8076C49.489 59.5285 48.8263 59.2514 48.0996 59.5525L48.865 61.4002ZM48.6795 63.2551C48.7645 62.4046 48.8195 61.8813 48.9071 61.5332C48.9943 61.1866 49.0389 61.3282 48.865 61.4002L48.0996 59.5525C47.3729 59.8535 47.1002 60.518 46.9675 61.0453C46.8352 61.5712 46.7677 62.2732 46.6894 63.0561L48.6795 63.2551ZM47.8418 71.6319L48.6795 63.2551L46.6894 63.0561L45.8517 71.4329L47.8418 71.6319ZM47.1037 73.8163C47.4561 73.4973 47.6074 73.1049 47.6889 72.7535C47.764 72.4299 47.8017 72.0332 47.8418 71.6319L45.8517 71.4329C45.8063 71.8874 45.7798 72.1327 45.7406 72.3017C45.7079 72.4429 45.6949 72.3938 45.7617 72.3334L47.1037 73.8163ZM44.8567 74.3334C45.2601 74.3334 45.6585 74.3353 45.988 74.2928C46.3457 74.2467 46.7512 74.1352 47.1037 73.8163L45.7617 72.3334C45.8284 72.2729 45.876 72.2907 45.7323 72.3092C45.5603 72.3314 45.3135 72.3334 44.8567 72.3334V74.3334ZM35.1433 74.3334H44.8567V72.3334H35.1433V74.3334ZM32.8963 73.8163C33.2488 74.1352 33.6543 74.2467 34.0121 74.2928C34.3415 74.3353 34.7399 74.3334 35.1433 74.3334V72.3334C34.6865 72.3334 34.4397 72.3314 34.2677 72.3092C34.124 72.2907 34.1716 72.2729 34.2383 72.3334L32.8963 73.8163ZM32.1582 71.6319C32.1983 72.0332 32.236 72.4299 32.3111 72.7535C32.3926 73.1049 32.5439 73.4973 32.8963 73.8163L34.2383 72.3334C34.3051 72.3938 34.2921 72.4429 34.2594 72.3017C34.2202 72.1327 34.1937 71.8874 34.1483 71.4329L32.1582 71.6319ZM31.3207 63.2564L32.1582 71.6319L34.1483 71.4329L33.3107 63.0574L31.3207 63.2564ZM31.1352 61.4015C30.9613 61.3295 31.0058 61.1879 31.093 61.5346C31.1806 61.8826 31.2356 62.4059 31.3207 63.2564L33.3107 63.0574C33.2324 62.2745 33.1649 61.5725 33.0326 61.0466C32.8999 60.5193 32.6272 59.8548 31.9005 59.5538L31.1352 61.4015ZM29.6924 62.582C30.354 62.0407 30.7628 61.7096 31.0709 61.5254C31.3777 61.3419 31.309 61.4735 31.1352 61.4015L31.9005 59.5538C31.1738 59.2528 30.5111 59.5298 30.0444 59.8089C29.579 60.0872 29.0349 60.5358 28.4259 61.034L29.6924 62.582ZM29.7663 62.5151L29.7663 62.5151L28.3521 61.1009L28.352 61.1009L29.7663 62.5151ZM23.1778 67.9121L29.6924 62.582L28.4259 61.0341L21.9113 66.3642L23.1778 67.9121ZM21.1112 68.9348C21.586 68.9585 21.9704 68.788 22.2766 68.5971C22.5585 68.4213 22.8656 68.1675 23.1778 67.9121L21.9113 66.3642C21.5577 66.6535 21.3655 66.8082 21.2183 66.9C21.0954 66.9767 21.1209 66.9328 21.2109 66.9373L21.1112 68.9348ZM19.1567 67.7116C19.442 67.9968 19.7223 68.2799 19.9853 68.4828C20.2709 68.7032 20.6365 68.9111 21.1112 68.9348L21.2109 66.9373C21.3008 66.9418 21.3219 66.988 21.2072 66.8995C21.0698 66.7935 20.894 66.6204 20.5709 66.2974L19.1567 67.7116ZM12.2883 60.8432L19.1567 67.7116L20.5709 66.2974L13.7025 59.429L12.2883 60.8432ZM11.0651 58.8887C11.0888 59.3634 11.2967 59.729 11.5171 60.0146C11.72 60.2776 12.0031 60.5579 12.2883 60.8432L13.7025 59.429C13.3795 59.1059 13.2064 58.9301 13.1004 58.7928C13.0119 58.678 13.0581 58.6991 13.0626 58.789L11.0651 58.8887ZM12.0878 56.8221C11.8324 57.1343 11.5786 57.4414 11.4028 57.7233C11.2119 58.0295 11.0414 58.4139 11.0651 58.8887L13.0626 58.789C13.0671 58.879 13.0232 58.9045 13.0999 58.7816C13.1917 58.6344 13.3464 58.4422 13.6357 58.0886L12.0878 56.8221ZM17.4178 50.3076L12.0878 56.8221L13.6357 58.0886L18.9658 51.5741L17.4178 50.3076ZM18.5983 48.8648C18.5263 48.6909 18.6579 48.6223 18.4744 48.9291C18.2902 49.2372 17.9591 49.646 17.4178 50.3076L18.9658 51.5741C19.464 50.9651 19.9126 50.421 20.191 49.9556C20.47 49.4889 20.7471 48.8262 20.4461 48.0995L18.5983 48.8648ZM16.7434 48.6793C17.594 48.7644 18.1172 48.8194 18.4653 48.907C18.8119 48.9942 18.6703 49.0387 18.5983 48.8648L20.4461 48.0995C20.1451 47.3728 19.4806 47.1001 18.9532 46.9674C18.4273 46.8351 17.7254 46.7676 16.9424 46.6893L16.7434 48.6793ZM8.36816 47.8418L16.7434 48.6793L16.9424 46.6893L8.56717 45.8517L8.36816 47.8418ZM6.18377 47.1037C6.50273 47.4562 6.89511 47.6074 7.24655 47.6889C7.57017 47.764 7.9668 47.8017 8.36816 47.8418L8.56717 45.8517C8.1126 45.8063 7.86728 45.7798 7.6983 45.7406C7.55713 45.7079 7.60626 45.6949 7.66667 45.7617L6.18377 47.1037ZM5.66667 44.8567C5.66667 45.2601 5.66473 45.6585 5.70719 45.988C5.75331 46.3458 5.86481 46.7513 6.18377 47.1037L7.66667 45.7617C7.72709 45.8285 7.70931 45.876 7.69079 45.7323C7.66861 45.5603 7.66667 45.3135 7.66667 44.8567H5.66667ZM5.66667 35.1433V44.8567H7.66667V35.1433H5.66667ZM6.18377 32.8963C5.86481 33.2488 5.75331 33.6543 5.70719 34.0121C5.66473 34.3415 5.66667 34.74 5.66667 35.1433H7.66667C7.66667 34.6865 7.66861 34.4398 7.69079 34.2677C7.70931 34.124 7.72708 34.1716 7.66667 34.2383L6.18377 32.8963ZM8.36814 32.1582C7.96678 32.1984 7.57016 32.2361 7.24654 32.3111C6.89511 32.3926 6.50272 32.5439 6.18377 32.8963L7.66667 34.2383C7.60626 34.3051 7.55713 34.2921 7.6983 34.2594C7.86727 34.2202 8.11259 34.1937 8.56715 34.1483L8.36814 32.1582ZM8.46766 32.1533H8.46765V34.1533H8.46766V32.1533ZM16.7446 31.3206L8.36816 32.1582L8.56717 34.1483L16.9437 33.3106L16.7446 31.3206ZM18.5996 31.1351C18.6716 30.9612 18.8132 31.0057 18.4665 31.0929C18.1184 31.1805 17.5952 31.2355 16.7446 31.3206L16.9437 33.3106C17.7266 33.2323 18.4285 33.1648 18.9545 33.0325C19.4818 32.8998 20.1463 32.6271 20.4473 31.9004L18.5996 31.1351ZM17.4191 29.6923C17.9604 30.3539 18.2915 30.7627 18.4757 31.0708C18.6592 31.3776 18.5275 31.309 18.5996 31.1351L20.4473 31.9004C20.7483 31.1737 20.4713 30.511 20.1922 30.0443C19.9139 29.5789 19.4653 29.0348 18.967 28.4258L17.4191 29.6923ZM12.0879 23.1764L17.4191 29.6923L18.967 28.4258L13.6359 21.91L12.0879 23.1764ZM11.0653 21.1099C11.0416 21.5847 11.2121 21.9691 11.4029 22.2752C11.5787 22.5571 11.8325 22.8642 12.0879 23.1764L13.6359 21.91C13.3466 21.5564 13.1918 21.3642 13.1 21.217C13.0234 21.094 13.0673 21.1196 13.0628 21.2095L11.0653 21.1099ZM12.2885 19.1554C12.0033 19.4406 11.7202 19.721 11.5172 19.984C11.2968 20.2696 11.0889 20.6351 11.0653 21.1099L13.0628 21.2095C13.0583 21.2995 13.0121 21.3205 13.1006 21.2058C13.2066 21.0685 13.3797 20.8926 13.7027 20.5696L12.2885 19.1554ZM19.1569 12.287L12.2885 19.1554L13.7027 20.5696L20.5711 13.7012L19.1569 12.287ZM21.1114 11.0638C20.6366 11.0874 20.2711 11.2953 19.9855 11.5157C19.7225 11.7187 19.4421 12.0018 19.1569 12.287L20.5711 13.7012C20.8941 13.3782 21.07 13.2051 21.2073 13.0991C21.322 13.0106 21.3009 13.0568 21.211 13.0613L21.1114 11.0638ZM23.1779 12.0864C22.8657 11.831 22.5586 11.5772 22.2767 11.4015C21.9706 11.2106 21.5862 11.0401 21.1114 11.0638L21.211 13.0613C21.1211 13.0658 21.0955 13.0219 21.2185 13.0986C21.3657 13.1903 21.5579 13.3451 21.9114 13.6344L23.1779 12.0864ZM29.6925 17.4166L23.1779 12.0864L21.9114 13.6344L28.4261 18.9645L29.6925 17.4166ZM31.1353 18.597C31.3092 18.525 31.3778 18.6566 31.071 18.4732C30.763 18.289 30.3541 17.9579 29.6925 17.4166L28.4261 18.9645C29.0351 19.4628 29.5791 19.9114 30.0446 20.1897C30.5113 20.4688 31.174 20.7458 31.9007 20.4448L31.1353 18.597ZM31.3208 16.7421C31.2357 17.5927 31.1808 18.1159 31.0932 18.464C31.006 18.8107 30.9614 18.6691 31.1353 18.597L31.9007 20.4448C32.6274 20.1438 32.9001 19.4793 33.0327 18.952C33.1651 18.426 33.2326 17.7241 33.3109 16.9411L31.3208 16.7421ZM32.1582 8.36818L31.3208 16.7421L33.3109 16.9411L34.1483 8.56718L32.1582 8.36818ZM32.1532 8.46766V8.46768H34.1532V8.46766H32.1532ZM32.8963 6.18378C32.5439 6.50274 32.3926 6.89512 32.3111 7.24655C32.236 7.57017 32.1983 7.9668 32.1582 8.36816L34.1483 8.56717C34.1937 8.11261 34.2202 7.86729 34.2594 7.69831C34.2921 7.55715 34.3051 7.60627 34.2383 7.66669L32.8963 6.18378ZM35.1433 5.66669C34.7399 5.66669 34.3415 5.66474 34.012 5.70721C33.6543 5.75332 33.2488 5.86482 32.8963 6.18378L34.2383 7.66669C34.1716 7.7271 34.124 7.70933 34.2677 7.6908C34.4397 7.66863 34.6865 7.66669 35.1433 7.66669V5.66669ZM44.8567 5.66669H35.1433V7.66669H44.8567V5.66669ZM47.1037 6.18378C46.7512 5.86482 46.3457 5.75332 45.988 5.70721C45.6585 5.66474 45.2601 5.66669 44.8567 5.66669V7.66669C45.3135 7.66669 45.5603 7.66863 45.7323 7.6908C45.876 7.70933 45.8284 7.7271 45.7617 7.66669L47.1037 6.18378ZM52.3333 40C52.3333 46.8115 46.8115 52.3334 40 52.3334V54.3334C47.9161 54.3334 54.3333 47.9161 54.3333 40H52.3333ZM40 27.6667C46.8115 27.6667 52.3333 33.1885 52.3333 40H54.3333C54.3333 32.0839 47.9161 25.6667 40 25.6667V27.6667ZM27.6667 40C27.6667 33.1885 33.1885 27.6667 40 27.6667V25.6667C32.0839 25.6667 25.6667 32.0839 25.6667 40H27.6667ZM40 52.3334C33.1885 52.3334 27.6667 46.8115 27.6667 40H25.6667C25.6667 47.9161 32.0839 54.3334 40 54.3334V52.3334Z" fill="#FDE7E7"/>
</svg>
