<svg width="24" height="25" viewBox="0 0 24 25" fill="none" xmlns="http://www.w3.org/2000/svg">
<path d="M10.304 7.32392C11.0815 5.41895 11.4702 4.46646 12.1387 4.46646C12.8072 4.46646 13.1959 5.41895 13.9734 7.32392L14.0096 7.41262C14.4489 8.48884 14.6685 9.02695 15.1161 9.35401C15.5637 9.68108 16.1512 9.7328 17.3264 9.83624L17.5388 9.85493C19.4621 10.0242 20.4237 10.1089 20.6294 10.7102C20.8352 11.3115 20.1211 11.95 18.6928 13.2271L18.2161 13.6534C17.4931 14.2999 17.1316 14.6231 16.9631 15.0468C16.9316 15.1258 16.9055 15.2068 16.8848 15.2892C16.7741 15.7309 16.8799 16.1998 17.0917 17.1377L17.1576 17.4296C17.5467 19.1533 17.7412 20.0151 17.4015 20.3868C17.2746 20.5257 17.1096 20.6257 16.9264 20.6749C16.4359 20.8064 15.7396 20.2488 14.347 19.1335C13.4326 18.4011 12.9753 18.035 12.4504 17.9526C12.2439 17.9202 12.0335 17.9202 11.827 17.9526C11.3021 18.035 10.8449 18.4011 9.93042 19.1335C8.5378 20.2488 7.8415 20.8064 7.35105 20.6749C7.16778 20.6257 7.00281 20.5257 6.87588 20.3868C6.53618 20.0151 6.73074 19.1533 7.11984 17.4296L7.18575 17.1377C7.39747 16.1998 7.50333 15.7309 7.39258 15.2892C7.37192 15.2068 7.34579 15.1258 7.31436 15.0468C7.14586 14.6231 6.78435 14.2999 6.06133 13.6534L5.58464 13.2271C4.15635 11.95 3.44221 11.3115 3.64798 10.7102C3.85374 10.1089 4.81536 10.0242 6.73861 9.85493L6.95106 9.83624C8.12618 9.7328 8.71375 9.68108 9.16135 9.35401C9.60894 9.02695 9.82856 8.48884 10.2678 7.41262L10.304 7.32392Z" stroke="#FDE7E7" stroke-width="2"/>
</svg>
