<svg width="21" height="20" viewBox="0 0 21 20" fill="none" xmlns="http://www.w3.org/2000/svg">
<path d="M19.9501 10C19.9501 15.2386 15.6269 19.5001 10.2757 19.5001C4.92441 19.5001 0.601196 15.2386 0.601196 10C0.601196 4.76143 4.92441 0.5 10.2757 0.5C15.6269 0.5 19.9501 4.76143 19.9501 10Z" stroke="#1E1E1E"/>
<g clip-path="url(#clip0_85_530)">
<path d="M13.4296 2.66663H10.9147V12.657C10.9147 13.8474 9.94747 14.8251 8.74376 14.8251C7.54006 14.8251 6.5728 13.8474 6.5728 12.657C6.5728 11.4879 7.51856 10.5314 8.67929 10.4889V7.98066C6.12141 8.02316 4.05792 10.085 4.05792 12.657C4.05792 15.2503 6.1644 17.3333 8.76526 17.3333C11.3661 17.3333 13.4726 15.229 13.4726 12.657V7.53427C14.4183 8.21448 15.579 8.61834 16.8043 8.63961V6.13137C14.9127 6.06761 13.4296 4.53716 13.4296 2.66663Z" fill="#1E1E1E"/>
</g>
<defs>
<clipPath id="clip0_85_530">
<rect width="14.9225" height="14.6667" fill="white" transform="translate(2.81439 2.66663)"/>
</clipPath>
</defs>
</svg>
