<svg width="32" height="30" viewBox="0 0 32 30" fill="none" xmlns="http://www.w3.org/2000/svg">
<path d="M30.5117 15C30.5117 23 23.9108 29.5 15.75 29.5C7.58922 29.5 0.988403 23 0.988403 15C0.988403 6.99999 7.58922 0.5 15.75 0.5C23.9108 0.5 30.5117 6.99999 30.5117 15Z" stroke="#FDE7E7"/>
<g clip-path="url(#clip0_144_957)">
<path d="M21.6503 5.74524H24.7966L17.9229 13.4668L26.0093 23.974H19.6777L14.7186 17.6014L9.04421 23.974H5.89602L13.2481 15.715L5.49084 5.74524H11.9832L16.4658 11.57L21.6503 5.74524ZM20.5461 22.1231H22.2894L11.0358 7.49894H9.165L20.5461 22.1231Z" fill="#FDE7E7"/>
</g>
<defs>
<clipPath id="clip0_144_957">
<rect width="22.3837" height="22" fill="white" transform="translate(4.55817 4)"/>
</clipPath>
</defs>
</svg>
