<svg width="32" height="30" viewBox="0 0 32 30" fill="none" xmlns="http://www.w3.org/2000/svg">
<path d="M30.8372 15C30.8372 23 24.2364 29.5 16.0756 29.5C7.91478 29.5 1.31396 23 1.31396 15C1.31396 6.99999 7.91478 0.5 16.0756 0.5C24.2364 0.5 30.8372 6.99999 30.8372 15Z" stroke="#FDE7E7"/>
<g clip-path="url(#clip0_144_943)">
<path d="M16.0756 4C9.89455 4 4.88373 8.92492 4.88373 15C4.88373 20.1586 8.49736 24.4873 13.3721 25.6762V18.3616H11.0643V15H13.3721V13.5515C13.3721 9.80756 15.0961 8.0722 18.8359 8.0722C19.5451 8.0722 20.7686 8.20904 21.2691 8.34544V11.3924C21.0049 11.3652 20.5461 11.3515 19.9762 11.3515C18.1412 11.3515 17.432 12.0348 17.432 13.8111V15H21.0878L20.4597 18.3616H17.432V25.9195C22.9738 25.2617 27.2679 20.6241 27.2679 15C27.2675 8.92492 22.2566 4 16.0756 4Z" fill="#FDE7E7"/>
</g>
<defs>
<clipPath id="clip0_144_943">
<rect width="22.3837" height="22" fill="white" transform="translate(4.88373 4)"/>
</clipPath>
</defs>
</svg>
