<svg width="80" height="80" viewBox="0 0 80 80" fill="none" xmlns="http://www.w3.org/2000/svg">
<path d="M10 28.6667C10 27.7239 10 27.2525 10.2929 26.9596C10.5858 26.6667 11.0572 26.6667 12 26.6667H68C68.9428 26.6667 69.4142 26.6667 69.7071 26.9596C70 27.2525 70 27.7239 70 28.6667V41.3334C70 42.2762 70 42.7476 69.7071 43.0405C69.4142 43.3334 68.9428 43.3334 68 43.3334H62C61.0572 43.3334 60.5858 43.3334 60.2929 43.6262C60 43.9191 60 44.3905 60 45.3334V64.6667C60 65.6095 60 66.0809 59.7071 66.3738C59.4142 66.6667 58.9428 66.6667 58 66.6667H22C21.0572 66.6667 20.5858 66.6667 20.2929 66.3738C20 66.0809 20 65.6095 20 64.6667V45.3334C20 44.3905 20 43.9191 19.7071 43.6262C19.4142 43.3334 18.9428 43.3334 18 43.3334H12C11.0572 43.3334 10.5858 43.3334 10.2929 43.0405C10 42.7476 10 42.2762 10 41.3334V28.6667Z" stroke="#FDE7E7" stroke-width="2"/>
<path d="M16.6667 43.3333H63.3334" stroke="#FDE7E7" stroke-width="2" stroke-linecap="round"/>
<path d="M40 23.3333L40 66.6666" stroke="#FDE7E7" stroke-width="2" stroke-linecap="round"/>
<path d="M40 23.3333L33.5029 16.8362C32.2953 15.6287 30.8233 14.7189 29.2032 14.1788L19.2991 10.8775C18.0041 10.4458 16.6667 11.4097 16.6667 12.7749V21.8918C16.6667 22.7527 17.2175 23.517 18.0342 23.7892L26.6667 26.6667" stroke="#FDE7E7" stroke-width="2" stroke-linecap="round"/>
<path d="M40 23.3333L46.4971 16.8362C47.7047 15.6287 49.1767 14.7189 50.7968 14.1788L60.7009 10.8775C61.9959 10.4458 63.3333 11.4097 63.3333 12.7749V21.8918C63.3333 22.7527 62.7825 23.517 61.9658 23.7892L53.3333 26.6667" stroke="#FDE7E7" stroke-width="2" stroke-linecap="round"/>
</svg>
