<svg width="36" height="24" viewBox="0 0 36 24" fill="none" xmlns="http://www.w3.org/2000/svg">
<rect x="0.889526" y="0.5" width="34.6105" height="23" rx="3.5" fill="white" stroke="#D9D9D9"/>
<path fill-rule="evenodd" clip-rule="evenodd" d="M17.208 15.7581V12.7371H18.7943C19.4444 12.7371 19.9931 12.5231 20.4404 12.1008L20.5477 11.9938C21.3647 11.1196 21.3111 9.75781 20.4404 8.94905C20.005 8.52088 19.4086 8.28896 18.7943 8.30085H16.2478V15.7581H17.208ZM17.2081 11.8213V9.21666H18.8186C19.1645 9.21666 19.4926 9.34749 19.7371 9.58536C20.2561 10.0849 20.268 10.9174 19.767 11.4348C19.5224 11.6905 19.1765 11.8332 18.8186 11.8213H17.2081ZM25.0265 11.0542C24.615 10.6796 24.0544 10.4893 23.3448 10.4893C22.4323 10.4893 21.7465 10.8223 21.2932 11.4824L22.1401 12.0116C22.4502 11.5597 22.8736 11.3337 23.4104 11.3337C23.7503 11.3337 24.0783 11.4586 24.3347 11.6846C24.5852 11.8987 24.7284 12.2079 24.7284 12.535V12.755C24.3586 12.5528 23.8934 12.4458 23.3209 12.4458C22.653 12.4458 22.1162 12.6004 21.7166 12.9155C21.3171 13.2307 21.1143 13.647 21.1143 14.1763C21.1024 14.658 21.3111 15.1159 21.6809 15.4251C22.0566 15.7581 22.5337 15.9246 23.0943 15.9246C23.7563 15.9246 24.2811 15.6332 24.6806 15.0504H24.7224V15.7581H25.6408V12.6123C25.6408 11.9522 25.438 11.4289 25.0265 11.0542ZM22.4205 14.8185C22.2237 14.6758 22.1044 14.4438 22.1044 14.1941C22.1044 13.9146 22.2356 13.6827 22.4921 13.4983C22.7546 13.314 23.0826 13.2188 23.4703 13.2188C24.0072 13.2129 24.4247 13.3318 24.7229 13.5697C24.7229 13.974 24.5619 14.3249 24.2458 14.6222C23.9594 14.9077 23.5717 15.0682 23.1661 15.0682C22.8977 15.0742 22.6353 14.985 22.4205 14.8185ZM27.7043 18L30.9128 10.6558H29.8691L28.3842 14.319H28.3663L26.8455 10.6558H25.8018L27.9071 15.431L26.7143 18H27.7043Z" fill="#3C4043"/>
<path d="M13.8931 12.0829C13.8931 11.7916 13.8693 11.5002 13.8216 11.2147H9.77216V12.862H12.0921C11.9967 13.3912 11.6865 13.867 11.2333 14.1643V15.2347H12.6169C13.428 14.4914 13.8931 13.3912 13.8931 12.0829Z" fill="#4285F4"/>
<path d="M9.77234 16.2695C10.9293 16.2695 11.9074 15.8889 12.6171 15.2348L11.2335 14.1643C10.8458 14.426 10.3508 14.5747 9.77234 14.5747C8.65115 14.5747 7.70291 13.8194 7.36297 12.8085H5.93762V13.9146C6.66521 15.3596 8.15019 16.2695 9.77234 16.2695Z" fill="#34A853"/>
<path d="M7.3631 12.8085C7.18415 12.2792 7.18415 11.7024 7.3631 11.1672V10.067H5.93752C5.32315 11.2742 5.32315 12.7014 5.93752 13.9086L7.3631 12.8085Z" fill="#FBBC04"/>
<path d="M9.77234 9.40102C10.3866 9.38913 10.977 9.62105 11.4183 10.0433L12.6469 8.81824C11.8656 8.09273 10.8399 7.6943 9.77234 7.70619C8.15019 7.70619 6.66521 8.62199 5.93762 10.0671L7.36297 11.1732C7.70291 10.1563 8.65115 9.40102 9.77234 9.40102Z" fill="#EA4335"/>
</svg>
