<svg width="32" height="30" viewBox="0 0 32 30" fill="none" xmlns="http://www.w3.org/2000/svg">
<path d="M30.8488 15C30.8488 23 24.248 29.5 16.0872 29.5C7.92638 29.5 1.32556 23 1.32556 15C1.32556 6.99999 7.92638 0.5 16.0872 0.5C24.248 0.5 30.8488 6.99999 30.8488 15Z" stroke="#FDE7E7"/>
<g clip-path="url(#clip0_144_947)">
<path d="M16.0872 5.98086C19.0775 5.98086 19.4316 5.99375 20.6076 6.04531C21.7006 6.09258 22.2908 6.27305 22.6843 6.42344C23.2045 6.62109 23.5805 6.86172 23.9696 7.24414C24.363 7.63086 24.6035 7.99609 24.8046 8.50742C24.9576 8.89414 25.1412 9.47852 25.1893 10.5484C25.2418 11.7086 25.2549 12.0566 25.2549 14.9914C25.2549 17.9305 25.2418 18.2785 25.1893 19.4344C25.1412 20.5086 24.9576 21.0887 24.8046 21.4754C24.6035 21.9867 24.3587 22.3563 23.9696 22.7387C23.5761 23.1254 23.2045 23.3617 22.6843 23.5594C22.2908 23.7098 21.6962 23.8902 20.6076 23.9375C19.4273 23.9891 19.0731 24.002 16.0872 24.002C13.0969 24.002 12.7427 23.9891 11.5667 23.9375C10.4738 23.8902 9.88357 23.7098 9.49011 23.5594C8.96986 23.3617 8.59388 23.1211 8.20479 22.7387C7.81133 22.352 7.57088 21.9867 7.36978 21.4754C7.21676 21.0887 7.03314 20.5043 6.98505 19.4344C6.93259 18.2742 6.91948 17.9262 6.91948 14.9914C6.91948 12.0523 6.93259 11.7043 6.98505 10.5484C7.03314 9.47422 7.21676 8.89414 7.36978 8.50742C7.57088 7.99609 7.8157 7.62656 8.20479 7.24414C8.59826 6.85742 8.96986 6.62109 9.49011 6.42344C9.88357 6.27305 10.4781 6.09258 11.5667 6.04531C12.7427 5.99375 13.0969 5.98086 16.0872 5.98086ZM16.0872 4C13.0488 4 12.6684 4.01289 11.4749 4.06445C10.2858 4.11602 9.46825 4.30508 8.76001 4.57578C8.02118 4.85937 7.39601 5.2332 6.77521 5.84766C6.15004 6.45781 5.76969 7.07227 5.48115 7.79414C5.20572 8.49453 5.01336 9.29375 4.9609 10.4625C4.90844 11.6398 4.89532 12.0137 4.89532 15C4.89532 17.9863 4.90844 18.3602 4.9609 19.5332C5.01336 20.702 5.20572 21.5055 5.48115 22.2016C5.76969 22.9277 6.15004 23.5422 6.77521 24.1523C7.39601 24.7625 8.02118 25.1406 8.75564 25.4199C9.46825 25.6906 10.2814 25.8797 11.4705 25.9312C12.6641 25.9828 13.0444 25.9957 16.0828 25.9957C19.1212 25.9957 19.5016 25.9828 20.6951 25.9312C21.8842 25.8797 22.7018 25.6906 23.41 25.4199C24.1445 25.1406 24.7696 24.7625 25.3904 24.1523C26.0112 23.5422 26.3959 22.9277 26.6801 22.2059C26.9555 21.5055 27.1479 20.7063 27.2004 19.5375C27.2528 18.3645 27.2659 17.9906 27.2659 15.0043C27.2659 12.018 27.2528 11.6441 27.2004 10.4711C27.1479 9.30234 26.9555 8.49883 26.6801 7.80273C26.4047 7.07227 26.0243 6.45781 25.3992 5.84766C24.7784 5.2375 24.1532 4.85938 23.4187 4.58008C22.7061 4.30937 21.893 4.12031 20.7038 4.06875C19.5059 4.01289 19.1256 4 16.0872 4Z" fill="#FDE7E7"/>
<path d="M16.0872 9.34961C12.9133 9.34961 10.3383 11.8805 10.3383 15C10.3383 18.1195 12.9133 20.6504 16.0872 20.6504C19.2611 20.6504 21.8361 18.1195 21.8361 15C21.8361 11.8805 19.2611 9.34961 16.0872 9.34961ZM16.0872 18.6652C14.0281 18.6652 12.358 17.0238 12.358 15C12.358 12.9762 14.0281 11.3348 16.0872 11.3348C18.1463 11.3348 19.8164 12.9762 19.8164 15C19.8164 17.0238 18.1463 18.6652 16.0872 18.6652Z" fill="#FDE7E7"/>
<path d="M23.4056 9.12615C23.4056 9.85662 22.8023 10.4453 22.0635 10.4453C21.3203 10.4453 20.7213 9.85232 20.7213 9.12615C20.7213 8.39568 21.3246 7.80701 22.0635 7.80701C22.8023 7.80701 23.4056 8.39998 23.4056 9.12615Z" fill="#FDE7E7"/>
</g>
<defs>
<clipPath id="clip0_144_947">
<rect width="22.3837" height="22" fill="white" transform="translate(4.89532 4)"/>
</clipPath>
</defs>
</svg>
