<svg width="21" height="20" viewBox="0 0 21 20" fill="none" xmlns="http://www.w3.org/2000/svg">
<path d="M19.8489 10C19.8489 15.2386 15.5257 19.5001 10.1745 19.5001C4.82322 19.5001 0.5 15.2386 0.5 10C0.5 4.76143 4.82322 0.5 10.1745 0.5C15.5257 0.5 19.8489 4.76143 19.8489 10Z" stroke="#1E1E1E"/>
<g clip-path="url(#clip0_85_529)">
<path d="M10.1745 3.9872C12.168 3.9872 12.4041 3.9958 13.1881 4.03017C13.9168 4.06168 14.3102 4.182 14.5725 4.28226C14.9194 4.41403 15.17 4.57445 15.4294 4.82939C15.6917 5.08721 15.852 5.3307 15.9861 5.67159C16.0881 5.9294 16.2105 6.31898 16.2426 7.03227C16.2775 7.80571 16.2863 8.03774 16.2863 9.99426C16.2863 11.9536 16.2775 12.1857 16.2426 12.9562C16.2105 13.6724 16.0881 14.0591 15.9861 14.3169C15.852 14.6578 15.6888 14.9042 15.4294 15.1591C15.1671 15.4169 14.9194 15.5745 14.5725 15.7063C14.3102 15.8065 13.9138 15.9268 13.1881 15.9583C12.4012 15.9927 12.1651 16.0013 10.1745 16.0013C8.18091 16.0013 7.94483 15.9927 7.16081 15.9583C6.43217 15.9268 6.03871 15.8065 5.7764 15.7063C5.42956 15.5745 5.17891 15.4141 4.91952 15.1591C4.65721 14.9013 4.4969 14.6578 4.36284 14.3169C4.26083 14.0591 4.13841 13.6695 4.10635 12.9562C4.07138 12.1828 4.06264 11.9508 4.06264 9.99426C4.06264 8.03487 4.07138 7.80284 4.10635 7.03227C4.13841 6.31612 4.26083 5.9294 4.36284 5.67159C4.4969 5.3307 4.66012 5.08434 4.91952 4.82939C5.18183 4.57158 5.42956 4.41403 5.7764 4.28226C6.03871 4.182 6.43509 4.06168 7.16081 4.03017C7.94483 3.9958 8.18091 3.9872 10.1745 3.9872ZM10.1745 2.66663C8.14885 2.66663 7.89528 2.67522 7.0996 2.70959C6.30684 2.74397 5.76182 2.87001 5.28966 3.05048C4.7971 3.23954 4.38032 3.48876 3.96646 3.8984C3.54967 4.30517 3.29611 4.71481 3.10375 5.19606C2.92013 5.66299 2.79189 6.19581 2.75691 6.97498C2.72194 7.75987 2.7132 8.00909 2.7132 9.99999C2.7132 11.9909 2.72194 12.2401 2.75691 13.0221C2.79189 13.8013 2.92013 14.337 3.10375 14.801C3.29611 15.2852 3.54967 15.6948 3.96646 16.1016C4.38032 16.5083 4.7971 16.7604 5.28675 16.9466C5.76182 17.1271 6.30393 17.2531 7.09669 17.2875C7.89236 17.3219 8.14593 17.3305 10.1715 17.3305C12.1972 17.3305 12.4507 17.3219 13.2464 17.2875C14.0392 17.2531 14.5842 17.1271 15.0563 16.9466C15.546 16.7604 15.9628 16.5083 16.3766 16.1016C16.7905 15.6948 17.047 15.2852 17.2364 14.8039C17.4201 14.337 17.5483 13.8042 17.5833 13.025C17.6182 12.243 17.627 11.9937 17.627 10.0029C17.627 8.01196 17.6182 7.76274 17.5833 6.9807C17.5483 6.20153 17.4201 5.66586 17.2364 5.20179C17.0528 4.71481 16.7993 4.30517 16.3825 3.8984C15.9686 3.49163 15.5518 3.23954 15.0622 3.05335C14.5871 2.87288 14.045 2.74683 13.2522 2.71246C12.4536 2.67522 12.2001 2.66663 10.1745 2.66663Z" fill="#1E1E1E"/>
<path d="M10.1744 6.23303C8.05847 6.23303 6.3418 7.92028 6.3418 9.99997C6.3418 12.0797 8.05847 13.7669 10.1744 13.7669C12.2904 13.7669 14.0071 12.0797 14.0071 9.99997C14.0071 7.92028 12.2904 6.23303 10.1744 6.23303ZM10.1744 12.4435C8.80168 12.4435 7.68832 11.3492 7.68832 9.99997C7.68832 8.65075 8.80168 7.55647 10.1744 7.55647C11.5472 7.55647 12.6606 8.65075 12.6606 9.99997C12.6606 11.3492 11.5472 12.4435 10.1744 12.4435Z" fill="#1E1E1E"/>
<path d="M15.0535 6.08402C15.0535 6.571 14.6512 6.96345 14.1587 6.96345C13.6632 6.96345 13.2639 6.56814 13.2639 6.08402C13.2639 5.59704 13.6661 5.20459 14.1587 5.20459C14.6512 5.20459 15.0535 5.5999 15.0535 6.08402Z" fill="#1E1E1E"/>
</g>
<defs>
<clipPath id="clip0_85_529">
<rect width="14.9225" height="14.6667" fill="white" transform="translate(2.7132 2.66663)"/>
</clipPath>
</defs>
</svg>
