<svg width="37" height="24" viewBox="0 0 37 24" fill="none" xmlns="http://www.w3.org/2000/svg">
<rect x="1.38953" y="0.5" width="34.6105" height="23" rx="3.5" fill="white" stroke="#D9D9D9"/>
<path fill-rule="evenodd" clip-rule="evenodd" d="M10.9622 15.241H9.37944C9.27113 15.241 9.17902 15.3183 9.16213 15.4234L8.52199 19.4125C8.50926 19.4912 8.57128 19.5621 8.65252 19.5621H9.40814C9.51645 19.5621 9.60856 19.4848 9.62545 19.3795L9.79811 18.3036C9.81476 18.1982 9.9071 18.121 10.0152 18.121H10.5162C11.5588 18.121 12.1605 17.6251 12.3177 16.6424C12.3885 16.2125 12.3207 15.8748 12.1159 15.6381C11.891 15.3784 11.4919 15.241 10.9622 15.241ZM11.1448 16.6979C11.0583 17.2561 10.6243 17.2561 10.2047 17.2561H9.96589L10.1334 16.2136C10.1434 16.1507 10.1989 16.1042 10.2637 16.1042H10.3732C10.659 16.1042 10.9287 16.1042 11.068 16.2643C11.151 16.3599 11.1765 16.5018 11.1448 16.6979ZM15.6934 16.68H14.9355C14.8709 16.68 14.8151 16.7264 14.8051 16.7895L14.7716 16.9978L14.7186 16.9223C14.5545 16.6882 14.1887 16.61 13.8235 16.61C12.9858 16.61 12.2705 17.2335 12.1312 18.1081C12.0588 18.5443 12.1617 18.9615 12.4135 19.2524C12.6445 19.5199 12.975 19.6314 13.3682 19.6314C14.043 19.6314 14.4173 19.2049 14.4173 19.2049L14.3835 19.4119C14.3707 19.4911 14.4327 19.562 14.5135 19.562H15.1963C15.3049 19.562 15.3964 19.4847 15.4136 19.3794L15.8232 16.8297C15.8362 16.7513 15.7744 16.68 15.6934 16.68ZM14.6369 18.1299C14.5637 18.5555 14.22 18.8412 13.7818 18.8412C13.5617 18.8412 13.3857 18.7718 13.2729 18.6403C13.1608 18.5098 13.1182 18.3239 13.1539 18.117C13.2222 17.695 13.5717 17.4 14.0033 17.4C14.2184 17.4 14.3934 17.4702 14.5087 17.6029C14.6241 17.7369 14.67 17.9238 14.6369 18.1299ZM18.9684 16.6799H19.7301C19.8368 16.6799 19.899 16.7975 19.8384 16.8835L17.3052 20.4774C17.2641 20.5356 17.1966 20.5702 17.1244 20.5702H16.3636C16.2565 20.5702 16.194 20.4517 16.256 20.3655L17.0448 19.2712L16.2059 16.8514C16.1769 16.7673 16.2401 16.6799 16.3311 16.6799H17.0795C17.1767 16.6799 17.2625 16.7427 17.2906 16.8341L17.7358 18.2956L18.7863 16.7748C18.8275 16.7154 18.8958 16.6799 18.9684 16.6799Z" fill="#253B80"/>
<path fill-rule="evenodd" clip-rule="evenodd" d="M27.2265 19.4124L27.876 15.3504C27.886 15.2874 27.9416 15.2409 28.0061 15.2407H28.7374C28.8182 15.2407 28.8802 15.3119 28.8674 15.3906L28.2269 19.3795C28.2102 19.4847 28.1181 19.5621 28.0096 19.5621H27.3565C27.2757 19.5621 27.2137 19.4912 27.2265 19.4124ZM22.2518 15.2409H20.6688C20.5607 15.2409 20.4686 15.3183 20.4517 15.4234L19.8115 19.4124C19.7988 19.4912 19.8608 19.5621 19.9417 19.5621H20.7539C20.8294 19.5621 20.894 19.508 20.9058 19.4343L21.0874 18.3036C21.1041 18.1982 21.1964 18.1209 21.3045 18.1209H21.8053C22.8481 18.1209 23.4497 17.625 23.607 16.6424C23.678 16.2125 23.6098 15.8747 23.405 15.6381C23.1802 15.3784 22.7815 15.2409 22.2518 15.2409ZM22.4344 16.6979C22.3481 17.2561 21.9141 17.2561 21.4943 17.2561H21.2557L21.4235 16.2136C21.4335 16.1506 21.4885 16.1042 21.5535 16.1042H21.663C21.9486 16.1042 22.2185 16.1042 22.3577 16.2643C22.4408 16.3599 22.4661 16.5018 22.4344 16.6979ZM26.9826 16.68H26.2252C26.1601 16.68 26.1048 16.7264 26.0951 16.7895L26.0615 16.9978L26.0083 16.9223C25.8442 16.6882 25.4786 16.61 25.1134 16.61C24.2758 16.61 23.5607 17.2335 23.4213 18.1081C23.3491 18.5443 23.4516 18.9615 23.7034 19.2524C23.9349 19.5199 24.2649 19.6314 24.6581 19.6314C25.3329 19.6314 25.7071 19.2048 25.7071 19.2048L25.6734 19.4119C25.6607 19.491 25.7227 19.562 25.804 19.562H26.4864C26.5945 19.562 26.6866 19.4846 26.7035 19.3794L27.1134 16.8297C27.1259 16.7513 27.0639 16.68 26.9826 16.68ZM25.9262 18.1299C25.8534 18.5555 25.5093 18.8412 25.071 18.8412C24.8513 18.8412 24.675 18.7718 24.562 18.6403C24.45 18.5098 24.4079 18.3239 24.4432 18.1169C24.5118 17.6949 24.8608 17.4 25.2925 17.4C25.5077 17.4 25.6826 17.4702 25.798 17.6028C25.9139 17.7368 25.9597 17.9238 25.9262 18.1299Z" fill="#179BD7"/>
<path d="M16.8196 13.8139L17.0142 12.5992L16.5808 12.5893H14.5111L15.9495 3.62547C15.9538 3.5984 15.9684 3.57317 15.9896 3.55526C16.0108 3.53734 16.038 3.52747 16.0663 3.52747H19.5561C20.7147 3.52747 21.5142 3.76442 21.9317 4.23212C22.1274 4.45153 22.252 4.68081 22.3123 4.93312C22.3755 5.19788 22.3767 5.51419 22.3149 5.89998L22.3104 5.92813V6.17532L22.5062 6.2843C22.671 6.37023 22.8019 6.4686 22.9023 6.58123C23.0698 6.76882 23.1781 7.00724 23.2239 7.28991C23.2711 7.58062 23.2555 7.92655 23.1781 8.31819C23.0888 8.76871 22.9444 9.16108 22.7495 9.48214C22.5701 9.77798 22.3417 10.0233 22.0705 10.2135C21.8115 10.3941 21.5038 10.5313 21.156 10.6191C20.8188 10.7053 20.4346 10.7489 20.013 10.7489H19.7414C19.5472 10.7489 19.3585 10.8176 19.2105 10.9409C19.0621 11.0667 18.9638 11.2385 18.9337 11.4265L18.9132 11.5358L18.5694 13.6768L18.5538 13.7554C18.5497 13.7804 18.5427 13.7928 18.5323 13.8012C18.5229 13.8088 18.5096 13.8139 18.4965 13.8139H16.8196Z" fill="#253B80"/>
<path d="M22.6914 5.95679C22.681 6.02224 22.6691 6.08916 22.6558 6.1579C22.1954 8.48032 20.621 9.28262 18.61 9.28262H17.5861C17.3402 9.28262 17.133 9.45813 17.0946 9.69655L16.5704 12.9643L16.4219 13.8905C16.397 14.047 16.5198 14.1882 16.6805 14.1882H18.4966C18.7116 14.1882 18.8942 14.0346 18.9281 13.8262L18.9459 13.7354L19.2879 11.6028L19.3099 11.4859C19.3433 11.2767 19.5263 11.1231 19.7414 11.1231H20.013C21.7724 11.1231 23.1498 10.421 23.5524 8.38927C23.7205 7.54053 23.6335 6.83185 23.1885 6.33343C23.0538 6.18313 22.8868 6.05844 22.6914 5.95679Z" fill="#179BD7"/>
<path d="M22.2098 5.76819C22.1396 5.74808 22.0669 5.72979 21.9925 5.71334C21.9178 5.69726 21.8411 5.68299 21.7622 5.67056C21.4861 5.62668 21.1837 5.60583 20.8596 5.60583H18.1243C18.0569 5.60583 17.993 5.62082 17.9357 5.64789C17.8095 5.70749 17.7158 5.82488 17.6931 5.96858L17.1111 9.59098L17.0944 9.69665C17.1328 9.45823 17.34 9.28271 17.5859 9.28271H18.6098C20.6208 9.28271 22.1954 8.48005 22.6556 6.158C22.6693 6.08926 22.6808 6.02234 22.6912 5.95689C22.5748 5.89618 22.4486 5.84426 22.3128 5.8C22.2794 5.78904 22.2448 5.77844 22.2098 5.76819Z" fill="#222D65"/>
<path d="M17.6932 5.96854C17.7159 5.82483 17.8097 5.70745 17.9357 5.6482C17.9935 5.62114 18.0571 5.60615 18.1243 5.60615H20.8598C21.1838 5.60615 21.4863 5.62699 21.7623 5.67088C21.8412 5.68331 21.9179 5.69757 21.9927 5.71366C22.0671 5.73012 22.1396 5.7484 22.21 5.76851C22.2449 5.77875 22.2795 5.78935 22.3133 5.79996C22.4491 5.84421 22.5753 5.8965 22.6917 5.95684C22.8287 5.09859 22.6906 4.51424 22.2185 3.98511C21.698 3.40259 20.7586 3.1532 19.5565 3.1532H16.0665C15.821 3.1532 15.6116 3.32871 15.5736 3.5675L14.12 12.6235C14.0913 12.8026 14.2319 12.9643 14.4157 12.9643H16.5703L17.1113 9.59093L17.6932 5.96854Z" fill="#253B80"/>
</svg>
