<svg xmlns="http://www.w3.org/2000/svg" viewBox="0 0 44.66476 24.73369"><defs><style>.cls-1,.cls-3{fill:none;}.cls-2{fill:#fff;}.cls-2,.cls-3{stroke:#94211e;stroke-miterlimit:10;}.cls-3{stroke-width:3.12943px;}</style></defs><g id="Layer_3" data-name="Layer 3"><rect class="cls-1" width="44.66476" height="24.73369"/><ellipse class="cls-2" cx="44.66458" cy="-9.88883" rx="22.33238" ry="20.5233"/><ellipse class="cls-3" cx="44.66452" cy="-9.88879" rx="9.27476" ry="8.52344"/><ellipse class="cls-3" cx="44.66452" cy="-9.88879" rx="15.80364" ry="14.52344"/><ellipse class="cls-3" cx="44.66458" cy="-9.88883" rx="22.33238" ry="20.5233"/><ellipse class="cls-2" cx="-0.00018" cy="-9.88883" rx="22.33238" ry="20.5233"/><ellipse class="cls-3" cx="-0.00024" cy="-9.88879" rx="9.27476" ry="8.52344"/><ellipse class="cls-3" cx="-0.00024" cy="-9.88879" rx="15.80364" ry="14.52344"/><ellipse class="cls-3" cx="-0.00018" cy="-9.88883" rx="22.33238" ry="20.5233"/><ellipse class="cls-2" cx="66.99696" cy="2.47802" rx="22.33238" ry="20.5233"/><ellipse class="cls-3" cx="66.99696" cy="2.47802" rx="22.33238" ry="20.5233"/><ellipse class="cls-2" cx="22.3322" cy="2.47802" rx="22.33238" ry="20.5233"/><ellipse class="cls-3" cx="22.33214" cy="2.47806" rx="9.27476" ry="8.52344"/><ellipse class="cls-3" cx="22.33214" cy="2.47806" rx="15.80364" ry="14.52344"/><ellipse class="cls-3" cx="22.3322" cy="2.47802" rx="22.33238" ry="20.5233"/><ellipse class="cls-2" cx="-22.33256" cy="2.47802" rx="22.33238" ry="20.5233"/><ellipse class="cls-3" cx="-22.33256" cy="2.47802" rx="22.33238" ry="20.5233"/><ellipse class="cls-2" cx="44.66458" cy="14.84486" rx="22.33238" ry="20.5233"/><ellipse class="cls-3" cx="44.66452" cy="14.8449" rx="9.27476" ry="8.52344"/><ellipse class="cls-3" cx="44.66452" cy="14.8449" rx="15.80364" ry="14.52344"/><ellipse class="cls-3" cx="44.66458" cy="14.84486" rx="22.33238" ry="20.5233"/><ellipse class="cls-2" cx="-0.00018" cy="14.84486" rx="22.33238" ry="20.5233"/><ellipse class="cls-3" cx="-0.00024" cy="14.8449" rx="9.27476" ry="8.52344"/><ellipse class="cls-3" cx="-0.00024" cy="14.8449" rx="15.80364" ry="14.52344"/><ellipse class="cls-3" cx="-0.00018" cy="14.84486" rx="22.33238" ry="20.5233"/><ellipse class="cls-2" cx="66.99696" cy="27.21171" rx="22.33238" ry="20.5233"/><ellipse class="cls-3" cx="66.99696" cy="27.21171" rx="22.33238" ry="20.5233"/><ellipse class="cls-2" cx="22.3322" cy="27.21171" rx="22.33238" ry="20.5233"/><ellipse class="cls-3" cx="22.33214" cy="27.21175" rx="9.27476" ry="8.52344"/><ellipse class="cls-3" cx="22.33214" cy="27.21175" rx="15.80364" ry="14.52344"/><ellipse class="cls-3" cx="22.3322" cy="27.21171" rx="22.33238" ry="20.5233"/><ellipse class="cls-2" cx="-22.33256" cy="27.21171" rx="22.33238" ry="20.5233"/><ellipse class="cls-3" cx="-22.33256" cy="27.21171" rx="22.33238" ry="20.5233"/><ellipse class="cls-2" cx="44.66458" cy="39.57855" rx="22.33238" ry="20.5233"/><ellipse class="cls-3" cx="44.66452" cy="39.57859" rx="15.80364" ry="14.52344"/><ellipse class="cls-3" cx="44.66458" cy="39.57855" rx="22.33238" ry="20.5233"/><ellipse class="cls-2" cx="-0.00018" cy="39.57855" rx="22.33238" ry="20.5233"/><ellipse class="cls-3" cx="-0.00024" cy="39.57859" rx="15.80364" ry="14.52344"/><ellipse class="cls-3" cx="-0.00018" cy="39.57855" rx="22.33238" ry="20.5233"/></g></svg>