<svg width="31" height="30" viewBox="0 0 31 30" fill="none" xmlns="http://www.w3.org/2000/svg">
<path d="M30.5 15C30.5 23 23.8992 29.5 15.7384 29.5C7.57757 29.5 0.976746 23 0.976746 15C0.976746 6.99999 7.57757 0.5 15.7384 0.5C23.8992 0.5 30.5 6.99999 30.5 15Z" stroke="#FDE7E7"/>
<path d="M20.4693 4H16.6969V18.9855C16.6969 20.771 15.2461 22.2377 13.4405 22.2377C11.635 22.2377 10.1841 20.771 10.1841 18.9855C10.1841 17.2319 11.6027 15.7971 13.3438 15.7333V11.971C9.50702 12.0348 6.4118 15.1275 6.4118 18.9855C6.4118 22.8754 9.57151 26 13.4728 26C17.374 26 20.5337 22.8435 20.5337 18.9855V11.3014C21.9524 12.3217 23.6934 12.9275 25.5312 12.9594V9.1971C22.694 9.10145 20.4693 6.80579 20.4693 4Z" fill="#FDE7E7"/>
</svg>
