<svg width="31" height="30" viewBox="0 0 31 30" fill="none" xmlns="http://www.w3.org/2000/svg">
<path d="M30.1744 15C30.1744 23 23.5736 29.5 15.4128 29.5C7.252 29.5 0.651184 23 0.651184 15C0.651184 6.99999 7.252 0.5 15.4128 0.5C23.5736 0.5 30.1744 6.99999 30.1744 15Z" stroke="#FDE7E7"/>
<g clip-path="url(#clip0_144_961)">
<path d="M26.3817 10.6C26.3817 10.6 26.1631 9.08323 25.4899 8.41721C24.6374 7.54065 23.6843 7.53635 23.2471 7.48479C20.1169 7.26135 15.4172 7.26135 15.4172 7.26135H15.4084C15.4084 7.26135 10.7087 7.26135 7.57851 7.48479C7.14132 7.53635 6.18827 7.54065 5.33576 8.41721C4.6625 9.08323 4.44828 10.6 4.44828 10.6C4.44828 10.6 4.22095 12.3832 4.22095 14.1621V15.8293C4.22095 17.6082 4.44391 19.3914 4.44391 19.3914C4.44391 19.3914 4.6625 20.9082 5.33139 21.5742C6.18389 22.4508 7.30308 22.4207 7.80147 22.5153C9.59391 22.6828 15.4128 22.7344 15.4128 22.7344C15.4128 22.7344 20.1169 22.7258 23.2471 22.5067C23.6843 22.4551 24.6374 22.4508 25.4899 21.5742C26.1631 20.9082 26.3817 19.3914 26.3817 19.3914C26.3817 19.3914 26.6047 17.6125 26.6047 15.8293V14.1621C26.6047 12.3832 26.3817 10.6 26.3817 10.6ZM13.1001 17.8531V11.6699L19.1463 14.7723L13.1001 17.8531Z" fill="#FDE7E7"/>
</g>
<defs>
<clipPath id="clip0_144_961">
<rect width="22.3837" height="22" fill="white" transform="translate(4.22095 4)"/>
</clipPath>
</defs>
</svg>
