<svg width="18" height="17" viewBox="0 0 18 17" fill="none" xmlns="http://www.w3.org/2000/svg">
<path d="M7.74393 3.89933C8.37856 2.34438 8.69588 1.5669 9.2114 1.45915C9.34696 1.43081 9.48706 1.43081 9.62262 1.45915C10.1381 1.5669 10.4555 2.34438 11.0901 3.89933C11.451 4.7836 11.6314 5.22574 11.9691 5.52646C12.0638 5.61081 12.1666 5.68593 12.2761 5.75077C12.6663 5.98195 13.1535 6.02483 14.1279 6.11059C15.7773 6.25578 16.602 6.32837 16.8538 6.79052C16.906 6.88623 16.9414 6.98986 16.9587 7.0971C17.0422 7.6149 16.4359 8.15702 15.2234 9.24125L14.8867 9.54233C14.3198 10.0492 14.0363 10.3027 13.8724 10.619C13.774 10.8087 13.7081 11.0131 13.6772 11.2238C13.6257 11.5752 13.7087 11.9428 13.8747 12.6782L13.934 12.9409C14.2317 14.2597 14.3805 14.9191 14.1947 15.2432C14.0278 15.5343 13.7204 15.7207 13.3808 15.7366C13.0027 15.7544 12.4699 15.3277 11.4045 14.4744C10.7025 13.9122 10.3515 13.6311 9.96188 13.5213C9.60581 13.421 9.22821 13.421 8.87214 13.5213C8.4825 13.6311 8.13152 13.9122 7.42955 14.4744C6.36407 15.3277 5.83133 15.7544 5.45325 15.7366C5.11364 15.7207 4.8062 15.5343 4.63929 15.2432C4.45348 14.9191 4.60233 14.2597 4.90003 12.9409L4.95934 12.6782C5.12535 11.9428 5.20835 11.5752 5.15684 11.2238C5.12594 11.0131 5.06 10.8087 4.96165 10.619C4.79771 10.3027 4.51426 10.0492 3.94737 9.54233L3.61064 9.24125C2.39808 8.15702 1.7918 7.6149 1.8753 7.0971C1.89259 6.98986 1.92805 6.88623 1.98021 6.79052C2.23205 6.32837 3.05676 6.25578 4.70617 6.11059C5.68052 6.02483 6.1677 5.98195 6.55796 5.75077C6.66742 5.68593 6.77023 5.61081 6.86493 5.52646C7.20258 5.22574 7.38303 4.7836 7.74393 3.89933Z" fill="#FDE7E7" stroke="#FDE7E7" stroke-width="2"/>
</svg>
