<svg width="37" height="24" viewBox="0 0 37 24" fill="none" xmlns="http://www.w3.org/2000/svg">
<rect x="1.13953" y="0.5" width="34.6105" height="23" rx="3.5" fill="white" stroke="#D9D9D9"/>
<path fill-rule="evenodd" clip-rule="evenodd" d="M11.4501 16.2582H9.29281L7.67509 10.1924C7.59831 9.91334 7.43528 9.66667 7.19546 9.5504C6.59697 9.25823 5.93747 9.0257 5.21802 8.90843V8.6749H8.69326C9.1729 8.6749 9.53262 9.0257 9.59258 9.43313L10.4319 13.8086L12.5882 8.6749H14.6855L11.4501 16.2582ZM15.8846 16.2582H13.8472L15.5249 8.6749H17.5623L15.8846 16.2582ZM20.1982 10.7757C20.2581 10.3673 20.6179 10.1337 21.0376 10.1337C21.697 10.0751 22.4154 10.1924 23.015 10.4835L23.3747 8.85081C22.7752 8.61727 22.1157 8.5 21.5172 8.5C19.5397 8.5 18.1008 9.55041 18.1008 11.0082C18.1008 12.1173 19.1201 12.6996 19.8395 13.0504C20.6179 13.4002 20.9176 13.6338 20.8577 13.9835C20.8577 14.5082 20.2581 14.7418 19.6597 14.7418C18.9402 14.7418 18.2207 14.5669 17.5623 14.2747L17.2026 15.9085C17.922 16.1996 18.7004 16.3169 19.4198 16.3169C21.6371 16.3745 23.015 15.3251 23.015 13.75C23.015 11.7665 20.1982 11.6502 20.1982 10.7757ZM30.1453 16.2582L28.5276 8.6749H26.79C26.4303 8.6749 26.0706 8.90843 25.9506 9.25823L22.955 16.2582H25.0524L25.471 15.1502H28.048L28.2878 16.2582H30.1453ZM27.0898 10.7171L27.6883 13.5751H26.0106L27.0898 10.7171Z" fill="#172B85"/>
</svg>
