<svg width="21" height="20" viewBox="0 0 21 20" fill="none" xmlns="http://www.w3.org/2000/svg">
<path d="M20.3996 10C20.3996 15.2386 16.0764 19.5001 10.7251 19.5001C5.37387 19.5001 1.05066 15.2386 1.05066 10C1.05066 4.76143 5.37387 0.5 10.7251 0.5C16.0764 0.5 20.3996 4.76143 20.3996 10Z" stroke="#1E1E1E"/>
<g clip-path="url(#clip0_85_532)">
<path d="M18.0377 7.06661C18.0377 7.06661 17.892 6.05541 17.4432 5.6114C16.8748 5.02702 16.2395 5.02415 15.948 4.98978C13.8612 4.84082 10.728 4.84082 10.728 4.84082H10.7222C10.7222 4.84082 7.58906 4.84082 5.50224 4.98978C5.21078 5.02415 4.57541 5.02702 4.00707 5.6114C3.55823 6.05541 3.41541 7.06661 3.41541 7.06661C3.41541 7.06661 3.26385 8.25542 3.26385 9.44136V10.5528C3.26385 11.7388 3.4125 12.9276 3.4125 12.9276C3.4125 12.9276 3.55823 13.9388 4.00415 14.3828C4.57249 14.9672 5.31862 14.9471 5.65088 15.0101C6.84585 15.1218 10.7251 15.1562 10.7251 15.1562C10.7251 15.1562 13.8612 15.1505 15.948 15.0044C16.2395 14.97 16.8748 14.9672 17.4432 14.3828C17.892 13.9388 18.0377 12.9276 18.0377 12.9276C18.0377 12.9276 18.1864 11.7416 18.1864 10.5528V9.44136C18.1864 8.25542 18.0377 7.06661 18.0377 7.06661ZM9.18332 11.902V7.77989L13.2142 9.84813L9.18332 11.902Z" fill="#1E1E1E"/>
</g>
<defs>
<clipPath id="clip0_85_532">
<rect width="14.9225" height="14.6667" fill="white" transform="translate(3.26385 2.66663)"/>
</clipPath>
</defs>
</svg>
